<svg width="205" height="205" viewBox="0 0 205 205" fill="none" xmlns="http://www.w3.org/2000/svg">
<g clip-path="url(#clip0_128_2688)">
<path d="M53.2 16.6798C52.48 16.8198 51.38 17.1998 50.74 17.5198C49.68 18.0398 49.5 18.2398 48.68 19.6998C47.9 21.0798 47.6 21.4198 46.68 21.9798C45.52 22.6798 45.32 22.9798 45.1 24.4798C45 25.0798 44.82 25.4798 44.58 25.5998C44.06 25.8998 43.14 25.8398 42.66 25.4998C42.28 25.2398 42.14 25.2398 41.32 25.5398L40.4 25.8798V27.1398V28.3998H39.7H39V27.2998C39 26.6998 38.94 26.1998 38.86 26.1998C38.76 26.1998 38.22 26.3998 37.64 26.6398C36.6 27.0998 36.58 27.1198 36.64 27.8998C36.7 28.6798 36.68 28.6998 35.4 29.4198L34.1 30.1598L33.72 29.4198C33.52 29.0198 33.32 28.6598 33.28 28.6198C33.22 28.5598 31.18 29.1798 31.02 29.3198C30.98 29.3598 30.88 30.1198 30.78 31.0198C30.7 31.8998 30.58 32.6798 30.54 32.7398C30.48 32.7798 29.38 33.0198 28.1 33.2598L25.76 33.6998L24.58 35.0398L23.42 36.3998L23.52 38.6598L23.64 40.8998L22.64 42.3398C22.08 43.1398 21.58 44.0598 21.5 44.3798C21.42 44.7198 21.32 44.9998 21.26 44.9998C21.2 44.9998 20.68 44.7198 20.14 44.3798L19.12 43.7598L16.72 44.4598L14.32 45.1598L13.7 44.6798C13.26 44.3398 12.68 44.1598 11.82 44.0798L10.56 43.9398L10.7 45.3198C10.82 46.5598 10.78 46.7598 10.36 47.3798L9.87996 48.0598L10.78 50.7398C11.66 53.2798 11.68 53.4398 11.34 53.6998C11.1 53.8798 10.94 54.3398 10.86 55.0798C10.74 56.1998 10.74 56.1998 9.63996 56.8198L8.55996 57.4598L8.71996 58.4798C8.81996 59.0398 8.85996 60.3398 8.83996 61.3398C8.77996 63.1598 8.77996 63.1998 9.41996 63.9798C9.77996 64.4398 10.3 64.8398 10.62 64.8998C10.94 64.9798 11.24 65.0998 11.28 65.1798C11.32 65.2398 11.2 65.8998 11 66.5998C10.7 67.7198 10.68 67.9798 10.92 68.4198C11.06 68.7198 11.28 69.3398 11.38 69.8198C11.58 70.6798 11.56 70.7198 10.8 71.4998L9.99996 72.2998L9.03996 78.3798C8.09996 84.2198 8.03996 84.4798 7.51996 84.8998C7.09996 85.2398 6.83996 85.8198 6.27996 87.8198C4.91996 92.6998 4.41996 94.9798 3.59996 100.2L2.75996 105.5L1.91996 106.2C1.47996 106.58 0.839961 107.12 0.539961 107.4L-0.0400391 107.92L0.679961 111.1C1.07996 112.86 1.93996 117.44 2.59996 121.3C3.37996 125.82 3.97996 128.78 4.31996 129.64C4.69996 130.62 4.81996 131.28 4.77996 132.24C4.73996 133.56 5.03996 134.46 5.85996 135.34C6.43996 135.98 6.81996 135.92 8.87996 134.92L10.7 134.02L13.1 133.98C15.9 133.94 16.74 134.14 18.16 135.2L19.16 135.96L20.22 135.32C21.08 134.8 21.32 134.56 21.36 134.08C21.56 132.08 22.44 130.44 23.66 129.74C24.48 129.3 27.36 129.26 28.2 129.7C28.82 130.02 30.06 132.02 30.32 133.1C30.5 133.88 31.12 134.54 31.8 134.7C32.26 134.8 32.44 135.02 32.72 135.8C32.94 136.44 33.24 136.84 33.56 137C33.84 137.12 34.06 137.18 34.08 137.16C34.1 137.12 35.96 132.1 38.18 126C40.42 119.9 42.36 114.84 42.48 114.76C43.2 114.28 43.62 114.62 45.62 117.28C46.3 118.18 47.12 119.06 47.48 119.24C48.7 119.88 50.24 120.24 51.26 120.12C51.78 120.04 52.52 120.04 52.88 120.12C53.52 120.22 53.58 120.32 53.92 121.52C54.28 122.78 54.4 122.9 57.26 125.7L60.2 128.6H61.4C62.42 128.6 62.94 128.44 65.2 127.42C67.54 126.34 67.92 126.24 68.76 126.32C69.56 126.42 69.94 126.32 71.4 125.64C72.74 125.02 73.36 124.58 74.36 123.54C75.12 122.74 75.6 122.06 75.62 121.76C75.62 121.52 75.72 121 75.86 120.62C76.06 120.04 76.26 119.9 77.3 119.58C78.76 119.1 79.3 119.08 80.24 119.38C81.02 119.64 81.84 120.74 82.12 121.92C82.2 122.24 82.48 122.76 82.74 123.06C83.26 123.7 83.34 124.64 82.9 125C82.7 125.16 82.6 125.6 82.6 126.22C82.6 127 82.68 127.2 83 127.3C83.56 127.48 83.74 127.32 83.88 126.52C84.04 125.74 85 125 85.86 125C86.52 125 86.68 124.72 86.62 123.74C86.58 123.04 86.62 122.98 87.04 123.04C87.38 123.08 87.52 123.26 87.56 123.64C87.64 124.32 87.98 124.42 90 124.46C91.96 124.5 92.28 124.28 91.52 123.4C91.24 123.06 91 122.7 91 122.64C91 122 91.52 120.92 92.04 120.5C92.8 119.86 93.52 119.92 94.44 120.7C94.76 120.98 95.22 121.2 95.46 121.2C95.7 121.2 96.18 121.38 96.54 121.58C96.88 121.8 97.54 122.08 97.98 122.2C98.52 122.34 98.96 122.64 99.32 123.1C99.7 123.6 100 123.8 100.4 123.8C100.7 123.8 101.06 123.94 101.22 124.12C101.68 124.68 103.28 125.36 103.86 125.26C104.16 125.2 104.4 125.08 104.4 124.98C104.4 124.9 104.8 124.54 105.3 124.2C106.06 123.68 106.2 123.48 106.2 122.92C106.2 122.14 106.82 121.4 107.5 121.4C107.76 121.4 108.1 121.34 108.28 121.28C108.5 121.2 108.86 121.72 109.72 123.44C110.34 124.68 110.86 125.72 110.88 125.74C110.9 125.78 111.2 125.68 111.54 125.56C112.12 125.34 112.76 125.56 121 128.9L129.84 132.48L136.78 140.94C143.64 149.32 143.72 149.4 144.94 149.94C146.14 150.46 146.2 150.52 147.28 152.4C148.84 155.1 151.12 157.28 155.4 160.16L158.7 162.38L163.5 167.66C167.2 171.72 168.56 173.08 169.44 173.6C170.26 174.08 171.16 174.94 172.58 176.6C174.46 178.76 174.68 178.96 176 179.5C177.22 180.02 177.8 180.46 180.12 182.66L182.8 185.24L183.76 184.44L184.72 183.62L186.4 184.54C187.32 185.04 188.88 186.1 189.88 186.9L191.66 188.34L193.28 187.64C194.18 187.26 195.02 186.86 195.14 186.76C195.6 186.4 195.66 185.28 195.28 184.62L194.92 184.02L196.02 182.86C196.62 182.22 197.28 181.42 197.5 181.08C197.8 180.56 198.02 180.42 198.72 180.34C199.18 180.3 199.78 180.08 200.06 179.88C200.32 179.66 201.48 179.1 202.62 178.62C203.76 178.12 204.74 177.72 204.76 177.68C204.8 177.66 204.64 177.36 204.4 177.04C204.08 176.62 203.88 175.86 203.66 174.12C203.38 172.06 203.28 171.74 202.92 171.6C202.68 171.52 202.06 171.08 201.54 170.64C200.64 169.92 200.52 169.86 199.98 170.08C199.64 170.2 199.48 170.32 199.6 170.36C199.7 170.4 199.8 170.68 199.8 170.98C199.8 171.28 199.9 171.62 200.04 171.76C200.34 172.06 199.72 172.58 199.08 172.6C198.84 172.6 198.54 172.74 198.4 172.9C198 173.38 197.32 173.26 196.7 172.6C196.38 172.26 196 172 195.86 172C195.72 172 195.6 171.92 195.6 171.8C195.6 171.46 194.78 171.14 194.54 171.38C194.24 171.68 193.76 171.66 193.32 171.34C193.06 171.14 192.86 170.46 192.6 168.8C192.12 165.9 192 165.68 190.82 165.5C189.58 165.32 189.32 165.14 188.62 164.12C188.28 163.64 187.56 162.92 187 162.52C186.34 162.06 186 161.66 186 161.38C186 161.12 185.84 160.92 185.58 160.86C185.26 160.78 185.2 160.64 185.28 160.28C185.5 159.44 184.7 159.68 184.18 160.6C183.84 161.18 183.64 161.38 183.4 161.28C183.24 161.2 182.5 161.1 181.74 161.04C179.98 160.92 179.62 160.5 179.5 158.28C179.44 157.06 179.32 156.64 178.94 156.12C178.66 155.78 178.34 155 178.2 154.38C178 153.5 177.82 153.2 177.3 152.86C176.74 152.48 176.64 152.3 176.54 151.28C176.46 150.54 176.28 149.98 176.02 149.72C175.8 149.48 175.16 148.78 174.56 148.14C173.32 146.76 172.68 146.38 172.06 146.62C171.38 146.88 171.5 147.14 172.38 147.28C173.58 147.46 174.22 148.24 173.38 148.46C172.96 148.58 172.98 148.62 173.68 149.42C174.08 149.9 174.4 150.36 174.4 150.46C174.4 150.78 172.92 149.36 172.58 148.72C172.06 147.76 171.46 147.32 170.72 147.34C170.12 147.36 169.98 147.24 169.12 145.9C168.02 144.18 165.9 142.08 165.08 141.9C163.66 141.58 162.1 140.84 161.2 140.04C160.42 139.36 159.98 139.14 159.1 139C157.42 138.72 157.52 138.82 155.32 135.58C154.82 134.84 153.8 133.72 153.06 133.1C152.14 132.32 151.52 131.6 151.12 130.82C150.64 129.88 147.14 125.56 144.52 122.7C144.12 122.26 143.5 121.4 143.16 120.8C142.78 120.2 142.1 119.44 141.6 119.08C141.1 118.72 140.28 118.06 139.78 117.62C139.14 117.06 138.68 116.8 138.26 116.8C137.94 116.8 137.5 116.66 137.28 116.5C137.06 116.32 136.44 116.22 135.74 116.2C134.72 116.2 134.56 116.14 134.36 115.7C133.94 114.76 132.72 114.5 128.88 114.52L125.46 114.56L125.12 113.92C124.86 113.44 124.8 112.9 124.84 111.8L124.9 110.34L124.04 109.66C123.1 108.94 122.22 108.8 121.8 109.3C121.66 109.46 121.48 109.6 121.38 109.6C121.1 109.6 120.96 108.8 121.18 108.52C121.64 107.98 121.22 107.6 120.18 107.6C119.24 107.6 119.18 107.56 119.06 107C118.92 106.24 118.42 106.22 117.92 106.98C117.7 107.28 117.36 107.66 117.14 107.78C116.82 108 116.68 107.96 116.28 107.58C116.02 107.34 115.8 106.96 115.8 106.76C115.8 106.34 115.78 106.34 115.12 106.62C114.8 106.76 114.6 107.04 114.56 107.38C114.48 108.04 113.96 108.14 113.7 107.56C113.42 106.94 113.14 106.98 112.94 107.7C112.84 108.02 112.68 108.44 112.6 108.6C112.38 109.06 111.4 109.46 110.54 109.44C109.48 109.4 107.12 108.22 107.04 107.7C106.84 106.38 106.36 105.6 105.4 105.08C104.42 104.54 104 103.96 104 103.1C104 102.82 103.84 102.52 103.6 102.4C103.38 102.28 103.2 102.08 103.2 101.96C103.2 101.82 103 101.52 102.76 101.26C102.42 100.9 102.38 100.74 102.56 100.56C102.9 100.22 102.86 99.6598 102.5 99.4398C102.22 99.2998 102.26 99.1798 102.7 98.5198C103.94 96.6798 102.82 95.0998 98.74 92.9398C97.62 92.3398 97.42 92.2798 96.78 92.4798C96.38 92.5998 95.76 93.0398 95.4 93.4598C94.8 94.1598 94.72 94.3798 94.64 95.7798C94.6 96.6198 94.66 97.8398 94.8 98.4798C95 99.4198 95.1 99.5998 95.36 99.4998C96.24 99.1398 96.28 99.2198 96.58 101.6C96.86 103.8 96.8 104.98 96.42 105.58C96.26 105.82 96.1 105.82 95.36 105.52C94.9 105.34 94.24 104.98 93.92 104.72C93.38 104.28 93.34 104.1 93.18 102.26C93.04 100.64 92.88 99.9998 92.32 98.7798C91.94 97.9598 91.46 97.0598 91.24 96.7998C91.04 96.5198 90.66 95.6198 90.4 94.7798C89.86 92.9198 88.78 91.5198 87.62 91.1798C86.96 90.9798 86.68 91.0198 85.72 91.3798L84.6 91.7998L84.3 91.1998C84.12 90.8598 84 90.0798 84 89.3598C84 88.6598 83.88 87.5198 83.72 86.7998C83.56 86.0798 83.38 84.9998 83.3 84.3998C83.1 82.8998 82.76 82.3198 81.76 81.7598C81.04 81.3598 80.88 81.1398 80.5 79.9998C80.24 79.2798 79.72 77.9798 79.3 77.0998C78.9 76.2198 78 73.8798 77.3 71.8998C76.04 68.3598 75.36 65.3398 73.92 57.0998C73.32 53.7198 71.92 49.2198 70.16 45.0798C68.34 40.8398 67.76 39.2198 67.4 37.2998C67.24 36.4598 66.98 35.9198 66.58 35.4998C66.2 35.0998 65.94 34.5398 65.8 33.8398C65.7 33.2398 65.16 31.9998 64.58 30.9398C64 29.9198 63.16 28.3998 62.7 27.5398C62.24 26.6798 61.4 25.4598 60.84 24.8198C60.28 24.1798 59.44 22.9998 58.96 22.1798C58.04 20.6398 54.84 16.3798 54.62 16.4198C54.56 16.4398 53.92 16.5598 53.2 16.6798Z" fill="#030712"/>
<path d="M99.8201 70.9998C99.6401 71.5598 99.6601 71.7198 99.9201 72.0198C100.26 72.3998 100.18 72.4598 98.9001 72.6398C98.3401 72.7198 98.2601 73.6198 98.7801 74.0798C99.1001 74.3798 99.2201 74.3798 99.6001 74.1598C99.9801 73.9198 100.08 73.9598 100.46 74.4398C100.88 74.9598 101.26 75.0998 102.08 75.0398C102.38 74.9998 102.42 74.8998 102.3 74.4398C102.24 74.1398 102.04 73.8398 101.9 73.7398C101.32 73.4198 100.98 72.9398 101.16 72.7598C101.4 72.5198 102.68 72.6598 103.54 73.0198C104.12 73.2598 104.24 73.2398 104.54 72.9598C105.04 72.4398 104.56 71.9998 103.5 71.9998C102.8 71.9998 102.62 71.9198 102.54 71.5798C102.44 71.2198 102.34 71.1798 101.52 71.2998C101 71.3798 100.6 71.3598 100.6 71.2598C100.6 71.1598 100.48 70.9198 100.34 70.6998C100.08 70.3598 100.04 70.3798 99.8201 70.9998Z" fill="#030712"/>
<path d="M81.9398 71.3396C81.8598 71.3996 81.7998 71.7596 81.7998 72.1396C81.7998 72.7196 81.8598 72.7996 82.2998 72.7996C82.9998 72.7996 83.0998 73.1796 82.7198 74.4396C82.5598 75.0196 82.4598 75.5196 82.4998 75.5596C82.5398 75.6196 82.8198 75.4996 83.0998 75.3196C83.7198 74.8996 83.7798 73.7396 83.2198 72.6396C82.7998 71.7996 82.1398 71.1396 81.9398 71.3396Z" fill="#030712"/>
<path d="M98.6604 78.3398C98.1804 78.3798 97.8004 78.4998 97.8004 78.5998C97.8004 78.8598 98.7204 79.0798 99.0004 78.8998C99.2604 78.7398 100.4 79.7398 100.4 80.1398C100.4 80.2798 100.18 80.3998 99.9004 80.3998C99.4604 80.3998 99.4004 80.4798 99.4004 81.0798C99.4004 81.5798 99.5004 81.7998 99.7604 81.8598C100.04 81.9198 100.02 81.9798 99.6004 82.1598C99.1604 82.3398 99.0204 82.2798 98.5004 81.7398L97.9004 81.1198L97.7804 82.1998C97.7204 82.7998 97.7004 83.3598 97.7404 83.4398C97.8604 83.6798 98.5204 83.6398 99.1004 83.3598C99.6004 83.1398 99.7004 83.1998 100.84 84.3398C101.78 85.2798 102.02 85.6398 101.92 85.9598C101.74 86.4998 100.86 86.7198 100.4 86.2998C100.22 86.1398 99.9204 86.0398 99.7604 86.0998C99.5604 86.1798 99.4004 85.9798 99.2004 85.4198C99.0604 84.9598 98.7204 84.4598 98.4604 84.2998C97.6404 83.7598 97.2604 84.4198 98.0004 85.0998C98.2204 85.2998 98.4004 85.6598 98.4004 85.8998C98.4004 86.1598 98.5404 86.3998 98.7004 86.4798C98.8604 86.5398 99.0004 86.7398 99.0004 86.9398C99.0004 87.6398 99.3404 87.8798 100.18 87.8398C100.64 87.7998 101.18 87.9198 101.46 88.0998C101.84 88.3398 102.06 88.3598 102.62 88.1798C103 88.0398 103.38 87.8598 103.5 87.7798C103.84 87.4598 104.32 87.5998 104.9 88.1998C105.22 88.5198 105.56 88.7998 105.66 88.7998C105.76 88.7998 105.78 88.5198 105.7 88.1998L105.56 87.5998H106.84C107.76 87.5998 108.26 87.6998 108.7 87.9998C109.48 88.5198 110.14 88.5198 110.3 87.9998C110.44 87.5798 111 87.4798 111.56 87.7798C111.76 87.8798 112.14 87.9198 112.44 87.8598C112.9 87.7798 112.96 87.6998 112.8 87.3998C112.68 87.1998 112.6 86.7198 112.6 86.3198C112.6 85.3998 112.24 85.1998 111.72 85.8398C111.28 86.3798 110.4 86.9198 110.4 86.6598C110.4 86.5798 110.64 86.3198 110.94 86.0798L111.48 85.6598L110.92 85.2998C110.46 84.9798 110.34 84.9798 110.18 85.2198C110.04 85.4398 110 85.3998 110 85.0798C110 84.3998 109.36 84.0198 108.04 83.8798C106.86 83.7398 106.8 83.7598 106.58 84.2598C106.24 85.0198 106.62 85.4798 107.32 85.1598C107.68 84.9798 107.88 84.9998 108.04 85.1598C108.22 85.3398 108.18 85.3998 107.88 85.3998C107.68 85.3998 107.4 85.5998 107.3 85.8398C107.08 86.3598 106.24 86.5198 105.18 86.2598C104.54 86.0798 104.5 85.9998 104.1 84.3798C103.6 82.4398 103.38 81.9398 102.74 81.4998C102.4 81.2598 102.3 80.9998 102.3 80.3398C102.3 79.5198 102.28 79.4998 101.36 79.1798C100.84 79.0198 100.24 78.7198 100.04 78.5398C99.8404 78.3598 99.6404 78.2198 99.5804 78.2398C99.5404 78.2598 99.1204 78.2998 98.6604 78.3398Z" fill="#030712"/>
<path d="M124.52 88.3803C124.14 88.7603 124.04 89.0003 124.2 89.1003C124.32 89.1803 124.44 89.2003 124.48 89.1803C125.34 87.8803 125.36 87.5003 124.52 88.3803Z" fill="#030712"/>
<path d="M108.22 98.9798C107.88 99.1998 108.18 99.7998 108.62 99.7998C108.86 99.7998 109 99.6598 109 99.4198C109 98.9998 108.58 98.7598 108.22 98.9798Z" fill="#030712"/>
<path d="M108.66 100.84C107.82 101.24 108.18 103 109.1 103C109.54 103 109.58 102.92 109.54 102.18C109.52 101.6 109.62 101.28 109.86 101.1C110.52 100.62 109.54 100.42 108.66 100.84Z" fill="#030712"/>
<path d="M110.4 105.38C110.4 105.6 110.32 105.84 110.2 105.9C109.9 106.08 109.96 107.12 110.3 107.4C110.7 107.74 111.2 107.58 111.68 106.94C112.08 106.4 112.08 106.38 111.72 105.7C111.28 104.9 110.4 104.7 110.4 105.38Z" fill="#030712"/>
</g>
<defs>
<clipPath id="clip0_128_2688">
<rect width="204.8" height="204.8" fill="white"/>
</clipPath>
</defs>
</svg>
