<svg width="205" height="205" viewBox="0 0 205 205" fill="none" xmlns="http://www.w3.org/2000/svg">
<g clip-path="url(#clip0_128_2727)">
<path d="M184.12 17.9202C183.58 18.2202 183.56 18.2802 183.68 19.2602C183.94 21.2402 183.94 21.2602 183.36 21.5602C182.94 21.7402 182.8 21.9802 182.8 22.3602C182.8 22.6602 182.68 23.1002 182.52 23.3202C182.36 23.5402 182.12 24.4602 181.98 25.3602C181.68 27.2802 181.3 27.8202 180.52 27.4002C179.96 27.1002 179.6 27.3002 178.7 28.3802L178.12 29.0402L175.32 28.9002C173.8 28.8202 172.2 28.6402 171.78 28.5002C171.38 28.3402 170.62 28.1602 170.1 28.0802C169.34 27.9802 168.94 27.7402 167.98 26.8602C166.46 25.4402 166.4 24.9002 167.7 23.7602C168.24 23.2802 168.86 22.4402 169.3 21.5402C169.7 20.7602 170.18 19.9202 170.38 19.7002C170.58 19.4802 170.82 19.1002 170.9 18.8402C171 18.4802 170.96 18.4002 170.54 18.4002C170.28 18.4002 169.86 18.6402 169.58 18.9202C169.32 19.2002 168.7 19.6602 168.2 19.9202C167.7 20.1802 166.94 20.6602 166.5 20.9802C166.06 21.3002 165.5 21.6202 165.26 21.7002C164.88 21.8002 164.8 21.7402 164.8 21.4002C164.8 20.6802 164.08 19.8802 163.12 19.5202L162.22 19.1802L161.32 19.7802C160.02 20.6802 158.94 20.8602 157.16 20.5002C156.36 20.3202 155.54 20.1402 155.36 20.0802C155.04 19.9802 155 20.1202 155 20.9802V21.9602L153.66 22.1002C152.82 22.1602 151.58 22.5002 150.46 22.9402C148.68 23.6402 148.6 23.6802 148.6 24.2802C148.6 24.6202 148.54 25.1002 148.48 25.3402C148.38 25.7002 148.44 25.8002 148.74 25.8002C149.22 25.8002 149.6 26.1802 149.6 26.6402C149.6 26.9802 149.76 27.0002 151.9 26.8602L154.22 26.7402L154.86 27.3602C155.22 27.7202 156 28.1602 156.6 28.3602L157.7 28.7402L157.76 29.7002C157.8 30.2202 157.72 30.9002 157.62 31.1802C157.46 31.5602 157.48 32.1402 157.68 33.3402L157.98 35.0002L157.36 36.3002C156.96 37.1602 156.56 37.7002 156.22 37.9002C155.92 38.0402 155.56 38.3202 155.42 38.4802C155.26 38.6602 154.94 38.8002 154.68 38.8002C154.24 38.8002 154.2 38.8802 154.2 39.7202C154.2 40.6402 154.2 40.6402 154.66 40.3202C155.76 39.5402 155.74 39.5202 155.66 40.7602C155.62 41.3802 155.4 42.6802 155.18 43.6202C154.68 45.8402 154.7 46.0802 155.3 46.4802C156.16 47.0402 156.22 47.4202 155.66 48.6402C155.02 50.0802 154.3 50.4402 152.32 50.3602L150.96 50.3002L150.58 48.8002C150.1 46.8802 149.26 46.0202 147.48 45.6402L146.3 45.4002L145.22 43.4802L144.14 41.5402L144.48 40.6202C144.68 40.1202 144.88 39.0202 144.94 38.1602L145.06 36.6402L144.44 36.3202C143.92 36.0402 143.6 36.0402 142.2 36.2402C140.8 36.4402 140.52 36.5402 140.1 37.0402C139.7 37.5002 139.6 37.8602 139.6 38.6802C139.6 39.6602 139.54 39.7802 138.66 40.6402C137.78 41.5002 137.52 41.6202 135.34 42.2002C134.02 42.5402 132.84 42.7802 132.68 42.7202C132.52 42.6602 132.4 42.3202 132.4 41.8802C132.4 41.4202 132.2 40.8202 131.86 40.2802C131.38 39.5202 131.2 39.4002 130.6 39.4002C130.12 39.4002 129.58 39.6202 128.88 40.1002L127.84 40.8202L127.1 40.3002C126.68 40.0202 126.24 39.8002 126.1 39.8002C125.96 39.8002 125.74 39.6602 125.6 39.5002C125.32 39.1602 124.48 39.1002 124.3 39.4002C124.22 39.5202 123.64 39.8802 122.98 40.2002C122.34 40.5402 121.8 40.8802 121.8 40.9602C121.8 41.3202 122.76 42.0002 123.24 42.0002C123.84 42.0002 124 42.3002 124 43.5202C124 44.7002 123.34 45.7002 122.18 46.3002C121.04 46.9002 120.66 46.7002 120.44 45.4002C120.3 44.6202 120.22 44.5002 119.64 44.3202C119.02 44.1402 118.92 44.2002 118.12 44.9802C117.44 45.6602 117.28 45.9202 117.36 46.3802C117.42 46.9002 117.32 47.0202 116.52 47.5002C116 47.8002 115.62 48.1402 115.66 48.2802C115.7 48.4002 116.16 48.5402 116.7 48.6002C117.44 48.6802 117.74 48.8202 118.06 49.2402C118.46 49.7802 118.46 49.8002 118.1 51.0002L117.74 52.2002H116.3C115.1 52.2002 114.78 52.2802 114.2 52.7002C113.84 52.9602 113.24 53.2802 112.86 53.4202C112.08 53.6602 112.02 54.0402 112.68 54.3802C113.6 54.8802 113.64 55.4002 112.84 56.6802L112.1 57.8602L110.8 57.7402C109.12 57.6002 108.96 57.5202 108.5 56.6802C108.28 56.2802 107.8 55.7402 107.4 55.4802L106.7 54.9802L106.2 55.5602C105.92 55.8802 105.6 56.3002 105.5 56.5002C105.3 56.8202 105.22 56.8002 104.28 56.2202C103.34 55.6402 103.12 55.6002 101.48 55.6002C100.32 55.6202 99.5198 55.7202 99.1998 55.9002C98.9198 56.0602 98.3198 56.1802 97.8598 56.2002C97.1598 56.2002 96.9598 56.1002 96.5998 55.6202C96.2398 55.0802 96.1398 55.0402 95.5998 55.2202C94.6398 55.5602 94.1398 57.8602 94.5198 60.2002L94.6398 60.9202L95.7798 59.7402L96.9198 58.5602L97.9798 58.7802C98.5398 58.9002 99.4798 59.0002 100.06 59.0002C100.64 59.0002 101.7 59.1402 102.44 59.3202C103.64 59.6202 103.8 59.7002 103.9 60.2202C104.1 61.1402 103.8 62.3802 103.2 63.0602C102.8 63.5402 102.62 64.0002 102.54 64.9002C102.38 66.3802 101.44 69.3002 100.88 70.1002C100.64 70.4402 100.14 71.8202 99.7398 73.2002C99.3598 74.5802 98.9398 75.9402 98.8398 76.2202C98.6198 76.8002 97.7398 77.2002 96.7398 77.2002C96.4198 77.2002 95.3598 77.5602 94.3798 78.0002C92.6398 78.7802 92.5598 78.8002 90.3198 78.8002C88.9998 78.8002 87.9798 78.7202 87.8997 78.6002C87.6598 78.2002 87.4398 78.4202 87.2998 79.2002C87.2197 79.6402 87.0798 80.0402 86.9798 80.1002C86.8997 80.1602 86.3798 79.9802 85.8597 79.7002C85.3398 79.4202 84.7398 79.2002 84.5397 79.2002C84.2197 79.2002 84.2197 79.2402 84.4798 79.7602C84.6398 80.0802 84.9198 80.4402 85.0798 80.5802C85.2998 80.7602 85.3997 81.2002 85.3997 81.9802C85.3997 83.0202 85.3398 83.1402 84.8398 83.4402C84.0598 83.9002 83.4798 83.7002 82.9198 82.7602C82.6598 82.3402 82.1597 81.7802 81.7997 81.5202C81.1397 81.0802 81.1197 81.0402 81.1797 79.8202L81.2197 78.5602L80.3597 78.7002C79.0997 78.9202 78.8597 79.1002 78.7197 79.9802L78.5997 80.8002L77.3397 80.6602C76.3997 80.5802 75.9197 80.4002 75.3597 79.9602C74.7397 79.4602 74.5197 79.4002 73.8197 79.5202C73.3597 79.6002 72.9397 79.7402 72.8797 79.8402C72.6397 80.2202 73.0397 81.0602 73.8597 81.8802C74.6597 82.6602 74.8597 82.7602 76.2997 82.9802C79.2397 83.4602 79.9597 84.5802 80.0397 88.7402L80.0997 91.3002L79.3597 92.6202C78.5597 94.0202 76.3997 96.2402 74.7397 97.3402C74.0798 97.7602 73.1597 98.1202 71.8397 98.4202C70.7797 98.6602 69.5797 99.0202 69.1797 99.2202C68.2197 99.7002 66.3197 100 64.1597 100C62.3197 100 61.0997 99.6602 59.6997 98.7602C59.0797 98.3602 58.9997 98.2002 58.9997 97.4602C58.9997 96.6602 58.9597 96.6002 58.0797 96.2202L57.1597 95.8002L57.2397 94.8602L57.2997 93.9202L56.0597 93.6202C55.3797 93.4402 54.7597 93.2402 54.6797 93.1402C54.5997 93.0602 54.2997 93.0002 54.0197 93.0002H53.4997L53.5597 94.7402L53.6397 96.5002L52.2997 97.2802C50.5397 98.3002 50.0997 99.1202 50.3997 100.74C50.7397 102.64 50.6797 102.92 49.2997 105.3C48.0197 107.48 47.9597 107.56 46.8597 108.04C45.8197 108.5 45.6397 108.52 44.4197 108.3C42.7997 108.02 40.8797 107.04 39.4597 105.74L38.3997 104.76L37.2997 105.18C36.6197 105.44 35.7197 105.6 34.9597 105.6C33.8997 105.6 33.6397 105.68 32.8197 106.28C32.3197 106.66 31.5397 107.44 31.0997 108.02C30.0197 109.4 27.3397 111.4 26.5197 111.4C26.1797 111.4 25.5797 111.46 25.1997 111.52C24.5797 111.62 24.4597 111.58 24.2597 111.14C24.0997 110.8 23.7197 110.54 23.0397 110.32C22.4997 110.14 21.8397 109.76 21.5997 109.5C20.8797 108.72 19.4997 108.86 19.7197 109.68C19.7797 109.94 19.6397 110.94 19.3997 111.94C19.0797 113.36 18.8597 113.86 18.3797 114.3C18.0597 114.62 17.7997 115.04 17.7997 115.22C17.7997 115.54 18.0397 115.6 19.6597 115.64C21.4597 115.7 21.4997 115.72 21.5597 116.2C21.5997 116.48 21.7997 116.88 22.0197 117.12C22.3597 117.48 22.5797 117.52 24.0997 117.44C25.4597 117.36 25.7997 117.4 25.7997 117.62C25.7997 117.78 25.9797 118.02 26.2197 118.16C26.4397 118.3 27.1597 119.52 27.7997 120.86L28.9597 123.3L29.3797 127.36C29.7397 130.8 29.7797 131.64 29.5797 133.06C29.4197 134.16 29.4197 135.1 29.5397 135.9C29.6997 136.98 29.6597 137.22 29.1797 138.4C27.7797 141.84 27.2797 142.68 26.2397 143.46L25.2397 144.22L25.1597 145.96C25.0997 147.62 25.0597 147.76 24.2597 148.92C23.1397 150.54 21.7197 151.8 19.8997 152.72L18.4197 153.5L17.3797 153.14C16.6197 152.86 16.0797 152.8 15.1397 152.9C14.4597 152.98 13.6997 152.96 13.4597 152.86C13.1997 152.76 12.7197 152.1 12.2597 151.2C11.6197 149.94 11.3997 149.68 10.8997 149.58C10.1597 149.44 9.59974 149.86 9.59974 150.56C9.59974 151.04 9.55974 151.06 8.55974 150.92C7.97974 150.86 7.11974 150.8 6.65974 150.8C5.83974 150.8 5.77974 150.76 5.29974 149.78C4.95974 149.14 4.81974 148.62 4.91974 148.36C5.05974 147.88 4.89974 147.96 3.67974 148.94C3.07974 149.42 2.65974 149.6 2.11974 149.6C1.29974 149.6 1.29974 149.62 1.69974 150.38C1.97974 150.92 1.93974 151.04 1.09974 152.8C0.0597416 154.9 -0.220258 156.4 0.239742 157.32C0.679742 158.16 0.819742 159.4 0.579742 160.26C0.339742 161.16 0.639742 161.84 1.87974 163.08C2.33974 163.56 2.97974 164.44 3.29974 165.06C3.83974 166.08 3.91974 166.14 4.35974 165.98C4.63974 165.88 4.87974 165.82 4.89974 165.84C4.91974 165.88 5.13974 166.24 5.37974 166.64C5.77974 167.3 5.87974 167.38 6.43974 167.26C7.13974 167.12 7.59974 167.54 7.59974 168.32C7.59974 168.56 8.01974 169.6 8.51974 170.62C9.37974 172.36 9.45974 172.46 9.71974 172.1C9.87974 171.88 10.0397 171.52 10.0797 171.3C10.3797 169.7 10.5197 169.34 10.9397 169.18C11.2997 169.04 11.4597 169.14 11.7997 169.72C12.0397 170.08 12.3397 170.4 12.4597 170.4C12.5797 170.4 12.5197 170.52 12.3197 170.66C11.9597 170.92 11.9797 170.96 12.3597 171.74C12.5997 172.18 12.9997 172.68 13.2797 172.88C13.7997 173.2 13.7997 173.2 13.7997 172.6C13.7997 172.24 13.9197 171.94 14.0997 171.88C14.5797 171.68 15.5197 172.18 15.7797 172.74C16.0197 173.26 16.0197 173.26 16.3197 172.84C16.4797 172.62 16.9197 172.32 17.2997 172.2C17.6797 172.08 18.0397 171.8 18.0997 171.58C18.2997 170.98 19.4597 171.06 19.7597 171.68C19.9197 172.04 20.2797 172.26 21.0997 172.48C22.4997 172.9 23.3797 172.68 24.7197 171.56C26.3597 170.22 26.7997 170.16 27.3997 171.3C27.7997 172.04 28.5597 171.9 29.1397 171C29.3797 170.62 30.0997 169.7 30.7397 168.94C31.7197 167.8 31.9797 167.6 32.5397 167.6C33.1597 167.6 33.1997 167.64 33.1997 168.34C33.1997 169.44 33.4397 169.74 34.1397 169.48C34.5597 169.34 34.7397 169.1 34.8797 168.54C35.0597 167.84 35.1197 167.8 35.8397 167.8C36.9397 167.8 37.7997 168.74 37.7997 169.94C37.7997 170.74 37.8397 170.8 38.5597 170.98C38.9597 171.1 39.6197 171.2 40.0197 171.2C40.4197 171.2 41.0397 171.26 41.3797 171.32C41.9597 171.44 41.9997 171.5 41.9997 172.34C41.9997 173.22 42.0197 173.24 42.5797 173.16C43.0397 173.1 43.2197 173.18 43.4997 173.64C43.8597 174.26 44.0797 174.32 44.7997 173.9C45.0797 173.74 45.6597 173.6 46.0997 173.6C46.5397 173.6 47.1197 173.46 47.3997 173.3C48.2397 172.82 49.2397 172.94 50.1597 173.6C50.6197 173.94 50.9997 174.28 50.9997 174.4C50.9997 174.5 51.2797 174.74 51.6397 174.92C52.1797 175.2 52.4197 175.22 53.2997 175C54.1797 174.78 54.4197 174.8 54.9197 175.06C55.7597 175.5 55.9997 175.82 56.1597 176.82C56.2997 177.64 56.3797 177.74 57.4997 178.34C58.9197 179.1 59.0797 179.14 58.7997 178.58C58.3597 177.78 58.6797 177.6 59.7197 177.98C60.4597 178.26 60.8197 178.3 61.3797 178.16C62.7597 177.78 64.7797 178.86 65.6197 180.46L66.0197 181.22L66.6597 180.86C67.0797 180.6 67.3397 180.28 67.3997 179.9L67.4997 179.3L67.9797 180C68.2597 180.38 68.4997 180.74 68.5597 180.8C68.5997 180.86 68.7397 180.74 68.8797 180.54C69.2997 179.98 71.3397 179 72.0798 179C73.0597 179 73.1997 179.54 72.4197 180.24C71.9797 180.64 71.7997 180.98 71.7997 181.4C71.7997 181.94 71.9197 182.08 72.6397 182.4C73.1197 182.62 73.8797 182.8 74.3397 182.8C75.0997 182.8 75.2397 182.72 75.9797 181.76C76.5597 181.06 76.7397 180.66 76.5997 180.52C76.2797 180.2 76.3597 180.04 76.9597 179.74C77.8597 179.26 78.9597 179.16 80.1197 179.42C81.1597 179.66 81.4598 179.88 82.0998 180.86C82.2798 181.14 82.4798 181.1 83.6998 180.5C84.8798 179.92 85.1598 179.84 85.5598 180.04C85.8597 180.2 85.9998 180.46 86.0198 180.88C86.0198 181.22 86.1398 181.8 86.2798 182.18L86.5198 182.86L86.9198 182.32C87.2197 181.9 87.5598 181.76 88.5798 181.58C89.2798 181.48 90.0397 181.28 90.2598 181.16C90.7798 180.88 91.8597 181.08 92.5798 181.58C93.1398 181.98 93.1398 181.98 93.4998 181.6C94.0998 180.94 94.6798 181.1 95.5397 182.14C95.9598 182.68 96.4198 183.34 96.5397 183.62C96.6798 183.94 97.1398 184.32 97.6798 184.6C98.4798 184.98 98.6798 185 99.3398 184.8C100.48 184.44 100.54 184.28 99.8798 183.58C99.3997 183.08 99.2998 182.8 99.2998 181.98C99.2998 181.22 99.1998 180.9 98.9198 180.68C98.6398 180.48 98.5198 180.14 98.4998 179.4L98.4598 178.4L99.1398 178.82C99.7197 179.18 99.9998 179.24 100.96 179.1C101.58 179.02 103 178.9 104.1 178.8C105.2 178.72 106.3 178.58 106.56 178.5L107 178.36L106.5 177.68L106 177.02L106.52 176.62L107.04 176.22L107.7 176.9C108.38 177.64 108.8 177.8 108.8 177.32C108.8 177.18 108.98 176.62 109.22 176.1L109.64 175.16L109.22 174.72C108.78 174.26 108.68 173.5 109 173C109.12 172.8 109.42 172.72 109.92 172.78L110.64 172.84L110.5 171.96C110.42 171.5 110.2 170.72 109.98 170.24L109.62 169.38L110.06 169.22C110.5 169.06 110.7 169.18 112.72 170.86C113.32 171.38 113.38 171.54 113.44 172.66C113.48 173.64 113.56 173.9 113.86 173.96C114.16 174.02 114.2 173.86 114.2 172.82C114.2 171.98 114.28 171.6 114.46 171.6C115.96 171.62 119.56 172.06 120.12 172.3C121.02 172.68 121.76 172.52 122.4 171.8C123.04 171.08 123.62 170.92 124.12 171.3C124.5 171.6 124.5 171.6 124.1 171.9C123.72 172.2 123.72 172.22 124.2 172.54C124.48 172.74 124.92 173.1 125.18 173.36C125.52 173.7 125.72 173.76 125.86 173.62C126.44 173.04 127.68 173.6 128.1 174.64C128.4 175.4 128.4 175.42 127.88 175.86L127.36 176.3L127.78 177.98C128.3 180.04 128.92 181.22 129.7 181.58C130.68 182.04 130.98 182.4 131.12 183.34C131.18 183.82 131.46 184.48 131.72 184.8C132.08 185.2 132.2 185.6 132.2 186.28C132.2 186.78 132.24 187.2 132.28 187.2C132.82 187.2 133.38 186.72 133.5 186.16C133.6 185.74 133.98 185.22 134.52 184.74C135 184.32 135.4 183.84 135.4 183.7C135.4 183.56 135.72 183.2 136.12 182.9C136.8 182.38 136.82 182.36 136.5 181.86C136.18 181.4 136.18 181.3 136.5 180.48C136.86 179.52 137.1 179.48 137.3 180.4C137.44 181.06 137.48 181.1 138.22 181.26C138.64 181.36 138.78 181.3 138.98 180.88C139.2 180.38 139.22 180.38 139.7 180.68C140.2 181 140.2 181 140.32 180.22C140.42 179.62 140.56 179.4 140.86 179.36C141.62 179.24 141.44 178.8 140.12 177.44C139.04 176.32 138.78 175.9 138.6 175.08C138.2 173.24 139.08 172.3 139.98 173.58C140.22 173.9 140.72 174.36 141.1 174.6C141.48 174.82 141.84 175.2 141.9 175.4C141.98 175.68 142.2 175.8 142.62 175.8C143.1 175.8 143.26 175.68 143.42 175.2C143.72 174.4 144.2 174.42 144.2 175.22C144.2 175.76 144.24 175.82 144.5 175.6C144.88 175.28 144.9 173.52 144.52 172.46C144.34 171.94 144.3 171.56 144.44 171.34C144.7 170.84 145.54 170.92 145.82 171.44C146.24 172.26 147.22 173.4 147.5 173.4C147.64 173.4 147.82 173.14 147.9 172.8C147.96 172.48 148.36 171.88 148.78 171.46C149.26 170.98 149.6 170.42 149.68 169.96C149.8 169.36 149.92 169.18 150.5 169C150.88 168.88 151.42 168.5 151.7 168.16C152.2 167.56 152.26 167.56 153 167.78C153.44 167.9 153.92 168.2 154.1 168.44C154.34 168.8 154.56 168.88 155.22 168.82C155.92 168.78 156.14 168.86 156.72 169.42C157.28 169.96 157.48 170.04 158.02 169.92C158.36 169.86 158.76 169.66 158.88 169.48C159.04 169.28 159.56 169.12 160.36 169.06L161.62 168.94L161.48 169.52C161.16 170.88 160.5 172.3 159.9 172.98C159.3 173.64 159.26 173.78 159.34 174.72C159.46 175.94 158.98 177.62 158.26 178.48C157.8 179.02 157.8 179.06 158.12 179.42C158.4 179.72 158.62 179.78 159.16 179.68C159.84 179.54 159.86 179.56 159.76 180.12C159.7 180.44 159.6 180.86 159.5 181.04C159.4 181.3 159.5 181.46 159.86 181.62C160.24 181.8 160.4 182.06 160.5 182.64C160.62 183.26 160.7 183.4 160.96 183.3C161.16 183.22 161.76 183.08 162.3 182.96C163.2 182.78 163.34 182.68 163.68 181.96C164 181.3 164.12 181.18 164.54 181.26C164.9 181.32 165 181.28 164.92 181.08C164.86 180.92 164.76 180.68 164.7 180.56C164.62 180.32 166.52 179 166.96 179C167.06 179 167.42 179.3 167.76 179.68C168.1 180.06 168.64 180.52 168.98 180.68L169.6 181.02V179.9C169.6 179.28 169.5 178.6 169.4 178.38C169.24 178.1 169.28 177.84 169.52 177.36C169.72 176.98 169.9 176.04 169.96 175.14C170.04 173.66 170.08 173.58 170.48 173.7C170.7 173.76 171.2 173.86 171.54 173.94C171.96 174.02 172.24 174.2 172.32 174.48C172.38 174.7 172.56 175.04 172.7 175.2C172.84 175.36 173 175.68 173.06 175.9C173.1 176.12 173.16 175.82 173.18 175.24C173.2 174.6 173.08 174 172.9 173.72C172.62 173.3 172.64 173.2 173.1 172.5C173.6 171.78 173.6 171.74 173.26 171.32C173.06 171.1 172.64 170.66 172.3 170.38C171.7 169.84 171.7 169.82 171.76 168C171.82 165.86 171.7 165.58 170.28 164.56C169.78 164.2 169.18 163.56 168.98 163.16L168.6 162.4L169.28 161.64C169.92 160.94 169.96 160.84 169.66 160.56C169.42 160.32 169.22 160.28 168.86 160.42C168.18 160.68 168 160.5 168 159.58C168 159.14 167.88 158.58 167.72 158.34C167.56 158.1 167.36 157.28 167.3 156.54L167.16 155.18L166.26 154.76C165.76 154.52 165.06 154.04 164.68 153.7C163.76 152.84 163.74 151.82 164.6 150.64C164.94 150.18 165.24 149.8 165.28 149.8C165.32 149.8 165.76 150.02 166.26 150.3L167.16 150.82L167.08 149.96C167.02 149.48 166.88 148.64 166.76 148.06C166.46 146.64 166.68 144.1 167.24 142.66C167.64 141.64 167.7 141.02 167.8 137.26C167.86 134.94 167.94 133 168 132.96C168.4 132.64 169.92 132.38 170.96 132.44C171.64 132.46 172.2 132.44 172.2 132.36C172.2 132.28 171.92 131.9 171.58 131.5C170.98 130.82 170.96 130.72 171.06 129.64C171.16 128.68 171.12 128.36 170.78 127.8C170.1 126.66 169.18 125.82 167.7 124.96C165.54 123.7 165.4 123.54 165.4 122.16C165.4 121.24 165.46 121 165.72 121C165.88 121 167.3 120.64 168.84 120.18C172.42 119.16 173.46 119.02 174 119.5C174.22 119.7 174.54 120.34 174.72 120.94C174.88 121.52 175.06 122 175.08 122C175.1 122 175.56 121.86 176.08 121.68C176.9 121.4 177.02 121.28 176.92 120.92C176.86 120.7 176.66 119.9 176.46 119.16L176.12 117.8L177 116.9C177.58 116.32 177.82 115.94 177.68 115.8C177.56 115.68 177.08 115.98 176.3 116.68C175.64 117.26 174.8 117.9 174.42 118.1L173.74 118.44L173.12 117.74C172.12 116.6 171.76 116.5 170.6 117.1C169.78 117.52 169.58 117.56 169.48 117.32C169.4 117.12 169.2 117.08 168.64 117.22C168.24 117.32 167.84 117.4 167.76 117.4C167.68 117.4 167.44 116.98 167.22 116.48C166.84 115.66 166.84 115.52 167.1 115C167.36 114.5 167.36 114.34 167.08 113.68C166.7 112.74 166.8 111.34 167.3 110.8C167.76 110.3 167.94 110.3 168.1 110.8C168.2 111.12 168.4 111.2 169.18 111.2C170.12 111.2 170.14 111.22 171.08 112.5C171.94 113.68 172.8 114.46 172.8 114.06C172.8 113.98 172.66 113.4 172.5 112.8C172.34 112.2 172.2 111.68 172.2 111.64C172.2 111.62 172.3 111.6 172.44 111.6C172.58 111.6 173.12 112.02 173.64 112.52C174.54 113.42 174.6 113.46 175.18 113.2C175.52 113.06 175.8 112.86 175.8 112.74C175.8 112.64 175.3 111.82 174.7 110.92C173.8 109.58 173.54 108.96 173.12 107.3C172.84 106.18 172.42 104.86 172.2 104.34C171.82 103.48 171.72 103.4 171.1 103.4C170.5 103.4 170.4 103.34 170.4 102.94C170.4 102.68 170.12 102.22 169.78 101.88C169.28 101.4 169 101.3 168.22 101.3C167.3 101.3 167.24 101.26 166.14 100L165 98.7002L165.02 97.1002C165.02 94.3802 165.4 92.8402 166.48 91.1202C167.22 89.9402 167.48 89.2802 167.64 88.2402C168.06 85.6202 168.1 85.5202 169.88 83.7202C170.8 82.8002 171.72 81.9802 171.96 81.9202C172.18 81.8402 172.6 81.4402 172.9 81.0002C173.2 80.5602 173.78 79.9602 174.18 79.6602C174.82 79.1602 175.1 79.0802 177 78.9802C178.16 78.9202 179.38 78.7602 179.7 78.6402C180.04 78.5202 181.38 78.1802 182.7 77.8802C184.02 77.6002 185.58 77.2002 186.16 76.9802C187.54 76.5002 188.94 76.5002 190.9 77.0002C191.76 77.2202 192.8 77.4002 193.22 77.4002C193.86 77.4002 194 77.3202 194.24 76.8002C194.38 76.4602 194.68 76.1402 194.9 76.0802C196.78 75.5602 197.24 74.8402 198.08 71.1802C198.18 70.7202 198.1 70.6202 197.54 70.3802C197.2 70.2402 196.66 69.9602 196.36 69.7602C195.96 69.4802 195.46 69.4002 194.04 69.4002H192.24L192.18 68.6402C192.06 67.5802 192.18 67.0002 192.5 67.0002C192.66 67.0002 192.92 66.7002 193.1 66.3402C193.3 65.9002 193.64 65.6002 194.1 65.4202C194.88 65.1402 195.6 64.3402 195.6 63.7602C195.6 63.5202 195.84 63.2802 196.26 63.1002C196.6 62.9602 197.12 62.6002 197.38 62.3202C197.82 61.8602 197.84 61.7002 197.74 60.4602C197.66 59.7402 197.52 59.0402 197.4 58.9202C196.98 58.5002 197.2 57.7602 197.94 57.0802C198.58 56.4802 198.68 56.2802 198.62 55.6402C198.6 55.2402 198.46 54.7202 198.32 54.5002C198.1 54.1602 197.6 52.4802 197.6 52.1002C197.6 52.0402 198.2 52.0602 198.94 52.1202C200.02 52.2402 200.36 52.3602 200.74 52.7802C200.98 53.0602 201.2 53.5402 201.2 53.8402C201.2 54.5002 201.7 54.6002 201.9 53.9802C202.04 53.5802 202.08 53.5802 202.78 54.2602C203.66 55.1002 204.28 55.3602 204.12 54.8402C204.08 54.6602 203.96 54.2802 203.9 54.0002C203.82 53.7202 203.56 53.3002 203.34 53.0602C202.94 52.6202 202.94 52.5202 203.18 50.4002C203.46 47.8802 203.78 46.5802 204.4 45.3002C204.68 44.7402 204.8 44.1802 204.74 43.8402C204.22 41.0402 204.22 40.9602 204.52 40.2402C204.9 39.3202 204.74 38.5602 203.98 37.7002C203.66 37.3402 203.26 36.6602 203.1 36.2002C202.84 35.4602 202.84 35.2802 203.12 34.6402L203.42 33.9002L202.72 33.3002C201.46 32.2202 201.34 30.9402 202.32 29.3802L202.8 28.6002L202.12 27.2402C201.24 25.5002 200.92 24.3202 201.18 23.8402C201.34 23.5402 201.28 23.3602 200.84 22.9402C200.36 22.4802 200.26 22.4602 199.92 22.7202C199.24 23.2002 198.52 23.0802 198.12 22.3602L197.74 21.7402L197.42 22.5602C197.02 23.5602 196.5 23.9802 195.66 24.0002C195.16 24.0002 194.94 24.1402 194.66 24.6002C194.36 25.1002 194.2 25.2002 193.5 25.2002C193.06 25.2002 192.42 25.0402 192.1 24.8402C191.42 24.4202 189.86 23.9002 188.76 23.7002C188.04 23.5802 188 23.5402 188 22.8202C188 22.2802 187.86 21.9402 187.5 21.6002C187.22 21.3402 187 21.0402 187 20.9402C187 20.8402 186.82 20.5002 186.6 20.1802C186.2 19.6602 186.2 19.5802 186.5 19.1202C186.82 18.6402 186.8 18.6202 186.06 18.1202C185.2 17.5202 184.92 17.5002 184.12 17.9202Z" fill="#030712"/>
</g>
<defs>
<clipPath id="clip0_128_2727">
<rect width="204.8" height="204.8" fill="white"/>
</clipPath>
</defs>
</svg>
