<svg width="205" height="205" viewBox="0 0 205 205" fill="none" xmlns="http://www.w3.org/2000/svg">
<g clip-path="url(#clip0_128_2597)">
<path d="M39.1003 0.240128C38.6603 1.60013 38.3603 3.40012 38.4803 4.28012C38.5803 5.14012 38.5203 5.36012 38.1603 5.74013C37.7603 6.16013 37.7403 6.28012 37.9603 7.08012C38.2403 8.14012 37.9403 9.32011 37.2603 9.86012C36.8603 10.1801 36.8003 10.4001 36.8003 11.7601C36.8003 13.2601 36.8403 13.3601 37.8203 15.0001C38.3803 15.9401 39.0003 16.8801 39.2203 17.1001C39.4203 17.3401 39.7803 18.0401 40.0003 18.6801C40.2203 19.3201 40.8203 20.4801 41.3603 21.2801C42.4603 22.8801 43.6403 25.7201 43.9603 27.5001C44.0803 28.1601 44.2803 29.7401 44.4003 31.0001C44.5803 32.9201 44.5803 33.5601 44.3203 34.9001C43.9203 36.9601 43.9203 37.6801 44.3403 38.1201C44.6803 38.4601 44.6603 38.4601 44.0203 38.3401L43.3403 38.2001L43.4803 39.9401C43.5803 41.1801 43.7603 42.0001 44.1203 42.8001C44.7003 44.0001 44.9403 45.9601 44.7203 47.4601C44.5803 48.4401 44.3603 48.5801 43.3603 48.4401C42.9003 48.3601 42.7603 48.2001 42.5603 47.5201C42.1203 45.9401 41.7003 45.7401 37.9803 45.3201L37.0603 45.2201L37.1403 46.7601C37.1803 47.6001 37.3003 48.6801 37.4003 49.1401C37.5203 49.6001 37.6003 50.3601 37.6003 50.8401C37.6003 51.8801 37.9603 52.4401 39.0403 53.1201C39.6403 53.5001 40.0003 53.6001 40.4803 53.5201C41.0403 53.4201 41.2203 53.2001 41.9603 51.7001C42.7603 50.0801 42.8403 50.0001 43.4403 50.0001C43.8003 50.0001 44.5803 50.2801 45.1603 50.6001L46.2003 51.2001V54.2601C46.2003 57.6001 46.0403 58.4401 44.9803 60.4001C44.5403 61.2401 44.4003 61.7001 44.5203 62.0401C44.7403 62.7401 45.2603 63.3801 45.6203 63.4001C45.8403 63.4001 45.9803 63.6601 46.0803 64.2201C46.3803 66.0801 47.1203 66.9201 47.7803 66.1201C48.1403 65.7001 48.8203 65.9601 49.9803 66.9801L51.0803 67.9401L50.6203 69.1601L50.1603 70.3601L50.6203 70.9801C51.0603 71.5801 51.1403 71.6001 52.4803 71.6001H53.8803L53.4803 72.0201C53.1203 72.3801 53.0003 72.4001 52.6603 72.1801C52.0203 71.7801 51.6803 72.0801 51.3203 73.3801C51.0203 74.4201 51.0203 74.6601 51.2603 75.2401C51.4203 75.6001 51.7403 76.0801 51.9803 76.2801C52.4003 76.6601 52.4003 76.6601 52.4003 76.1401C52.4003 75.5201 52.4403 75.5001 53.2003 75.9001C53.8603 76.2401 54.2003 76.7601 54.2003 77.4401V77.8801L53.8803 77.4401C53.6803 77.1401 53.3803 77.0001 52.9203 77.0001C52.0403 77.0001 51.7203 77.4201 51.8603 78.3401C52.0203 79.2401 52.5403 79.8001 53.4003 79.9801L54.0403 80.1001L53.4403 80.8601C53.0803 81.3001 52.7803 81.9801 52.7003 82.4601C52.4403 84.2401 52.3803 84.4001 51.9003 84.5201C51.4403 84.6401 51.4403 84.6801 51.4403 87.3001C51.4603 89.7201 51.4203 90.0001 51.0203 90.5801C50.7803 90.9201 50.4803 91.2001 50.3803 91.2001C50.2803 91.2001 50.2003 91.7201 50.2003 92.3801C50.2003 93.4201 50.2403 93.5601 50.6603 93.6801C50.9003 93.7401 51.1603 93.8001 51.2403 93.8001C51.3003 93.8001 51.4803 93.3201 51.6203 92.7401C51.8803 91.6001 52.3803 91.0201 52.6603 91.5201C52.8803 91.9001 53.3803 91.8801 53.8403 91.4601C54.1003 91.2201 54.2603 91.1801 54.4203 91.3401C54.5803 91.5001 54.4003 91.6801 53.7803 92.0201C53.3003 92.2601 52.8403 92.5601 52.7603 92.6801C52.5403 93.0001 52.5603 93.8801 52.8003 94.5201C52.9603 94.9401 53.0803 95.0001 53.2403 94.8401C53.8003 94.2801 55.5803 94.9401 57.0603 96.2601C57.8803 97.0201 57.9603 97.4001 57.5603 98.9601C57.2403 100.3 56.8603 100.8 56.2003 100.8C55.7403 100.8 55.6003 100.9 55.5003 101.4C55.2803 102.4 55.6003 104 56.2203 105.02C56.8803 106.06 56.9403 106.1 58.2803 106.3C59.0403 106.42 59.2203 106.54 59.3203 106.92C59.4003 107.2 59.4003 107.58 59.3403 107.78C59.2803 108.04 59.4803 108.38 59.9803 108.86C60.7803 109.62 62.7803 111 63.1003 111C63.2003 111 63.4603 111.4 63.6603 111.9C63.9403 112.54 64.1603 112.8 64.4403 112.8C64.9003 112.8 66.8603 114.6 67.5203 115.64C67.7803 116.04 68.3203 117.2 68.7203 118.22C69.1403 119.22 69.9403 120.76 70.5403 121.62C71.1203 122.5 71.6003 123.42 71.6003 123.7C71.6003 124.08 71.7403 124.22 72.1603 124.32C73.2803 124.6 74.5003 125.74 75.6203 127.52C75.8403 127.88 76.2003 128.24 76.4203 128.3C77.0003 128.5 77.4003 129.58 77.4003 130.96C77.4003 132.74 77.5803 133.32 78.3803 134.26C78.7803 134.72 79.2203 135.44 79.3403 135.86C79.5403 136.54 79.5203 136.66 79.1403 137.08C78.5603 137.7 77.2803 137.92 77.0003 137.44C76.5203 136.58 76.5203 136.58 75.5403 136.92L74.6003 137.24L75.1003 137.84C75.7003 138.56 75.7203 138.72 75.2003 139.5C74.6403 140.34 74.6403 142 75.2003 142.5C75.4203 142.7 75.8603 143.26 76.1603 143.74C76.7403 144.66 77.9203 145.4 78.8403 145.4C79.1203 145.4 79.7603 145.58 80.2603 145.8C81.0003 146.14 81.2003 146.32 81.3003 146.86C81.6203 148.5 81.9603 148.92 84.1803 150.34C85.7803 151.38 86.8003 151.88 88.3403 152.36C89.4603 152.72 90.4403 153.1 90.5203 153.22C90.7203 153.56 92.3803 154.2 93.0403 154.2C93.4403 154.2 93.8403 154.4 94.2403 154.8C94.7803 155.34 94.8403 155.52 94.7203 156.2C94.6203 156.88 94.6603 157.02 95.0403 157.22C95.8403 157.62 96.8003 158.66 96.8003 159.12C96.8003 159.36 96.9803 159.98 97.2003 160.48L97.5803 161.4H98.9003C100.18 161.4 100.24 161.42 101 162.2C101.64 162.86 101.92 163 102.54 163C103.24 163.02 103.36 163.1 104.18 164.3C105.66 166.52 107.82 168.5 108.58 168.36C108.78 168.32 109.1 168.44 109.28 168.58C109.66 168.9 111.5 169.6 111.94 169.6C112.08 169.6 112.62 169.88 113.14 170.2C113.66 170.54 114.2 170.8 114.34 170.8C114.48 170.8 115.06 171.08 115.62 171.42C116.58 172.02 116.7 172.04 118.1 171.94C119.4 171.82 119.58 171.86 119.92 172.22C120.12 172.46 120.54 172.76 120.84 172.92C121.22 173.12 121.44 173.46 121.6 174.06C121.92 175.38 122.4 176.16 123.82 177.72C124.56 178.54 125.58 179.72 126.1 180.36L127.06 181.54L128.68 181.66C130.82 181.82 131.62 182.08 132.6 182.9C133.04 183.26 133.58 183.64 133.8 183.7C134.02 183.78 134.2 184 134.2 184.2C134.2 184.7 135.94 186.08 136.94 186.42C137.36 186.54 138.04 186.96 138.46 187.32C138.86 187.7 139.36 188 139.58 188C139.78 188 140.16 188.16 140.42 188.38C140.68 188.58 141.76 189.12 142.82 189.58C144.02 190.1 144.98 190.68 145.42 191.12C146.2 191.94 147.3 192.46 147.84 192.28C148.08 192.2 148.36 192.36 148.74 192.8C149.02 193.14 149.74 193.64 150.34 193.9C151.22 194.3 151.48 194.54 151.8 195.24C152.02 195.72 152.2 196.28 152.2 196.5C152.2 196.72 152.5 197.14 152.86 197.42C153.8 198.18 154.7 200.48 154.5 201.7C154.4 202.48 154.44 202.68 154.92 203.3C155.22 203.7 155.72 204.2 156.04 204.42C156.58 204.82 156.64 204.82 157 204.5C157.28 204.24 157.7 204.18 158.88 204.22L160.38 204.26L161.16 203.08C161.58 202.44 162.42 201.12 163.04 200.18L164.18 198.44L165.84 198.54C167.3 198.64 167.66 198.58 168.72 198.14L169.96 197.64L170.86 198.68L171.74 199.7L174.42 199.64C177.44 199.58 178.06 199.76 178.16 200.66C178.2 201.06 178.36 201.24 178.76 201.32C179.06 201.4 179.56 201.68 179.86 201.94C180.3 202.3 180.66 202.4 181.54 202.4C182.54 202.4 182.72 202.34 183.28 201.76C183.62 201.4 184.02 200.86 184.14 200.54C184.32 200.16 184.54 200 184.9 200C185.22 200 185.4 199.88 185.4 199.7C185.4 199.52 185.54 199.34 185.7 199.28C186.16 199.1 186.06 197.84 185.48 196.38C185.2 195.68 184.82 194.16 184.6 193C184.26 191.02 183.28 188.1 182.12 185.6C181.84 185 181.6 184.34 181.6 184.16C181.6 183.94 181.32 183.68 180.92 183.52C180.02 183.14 179.8 182.68 179.8 181.24C179.8 179.84 179.14 178.18 176.96 174.2C176.04 172.48 175.28 171.36 174.78 170.92C173.9 170.18 173.84 169.9 174.4 169.3C174.8 168.86 174.8 168.86 174.42 168.36C174.16 168.04 174 167.48 173.96 166.78C173.92 165.88 173.84 165.68 173.5 165.64C173.02 165.56 171.64 163.86 170.94 162.48C170.66 161.92 170.3 161.36 170.12 161.22C169.72 160.88 169.52 159.84 169.78 159.52C169.92 159.34 169.88 159 169.6 158.28C168.86 156.32 168.5 155.9 166.54 154.82C165.54 154.26 164.36 153.7 163.92 153.58C162.9 153.3 160.2 151.24 159.38 150.12C159.04 149.62 158.4 148.94 157.98 148.6C157.54 148.26 157.2 147.82 157.2 147.64C157.2 147.46 156.92 146.72 156.58 146L155.96 144.7L156.2 142.2C156.48 139.38 156.36 133.56 155.94 129.7L155.68 127.3L156.32 124.86C156.68 123.52 157.06 122.28 157.16 122.08C157.46 121.52 156.8 120.42 155.66 119.58C154.98 119.06 154.38 118.34 153.58 116.98C152.12 114.5 151.72 113.34 152.08 112.62C152.24 112.34 152.72 110.98 153.16 109.6C154.14 106.54 154.8 105.3 155.6 105.02L156.2 104.82L155.82 103.96C155.62 103.48 155.22 102.6 154.96 102L154.46 100.9L155 99.2601C155.3 98.3601 155.68 97.4001 155.86 97.1201C156.06 96.8401 156.2 96.2201 156.2 95.7001C156.2 94.8601 156.24 94.8001 156.66 94.9001C157.4 95.1001 157.8 94.5801 158.3 92.8201L158.8 91.1201L158.3 90.0401C158.02 89.4401 157.8 88.6801 157.8 88.3601C157.8 88.0401 157.66 87.5001 157.48 87.1601C157.1 86.4401 157.24 85.4601 157.8 84.7401C158.36 84.0401 158.32 82.8801 157.7 81.7001C157.22 80.8201 157.18 80.5601 157.22 78.6201C157.26 77.4401 157.22 76.4001 157.16 76.2801C157.08 76.1801 156.94 75.3801 156.82 74.5201C156.62 73.0601 156.46 72.7201 155.12 70.5201C154.3 69.1801 152.6 66.0201 151.34 63.5001C150.08 60.9601 148.5 57.8801 147.82 56.6201C147.16 55.3801 146.46 53.8801 146.28 53.3201C145.76 51.7601 144.96 50.7401 142.94 49.1201C141.92 48.3201 140.84 47.3601 140.5 47.0201C140.18 46.6601 138.86 45.8401 137.6 45.1801C135.64 44.1601 134.84 43.5801 132.3 41.3401C130.62 39.8401 128.8 38.0201 128.1 37.1401C127.38 36.2001 126.54 35.3801 126 35.0601C125.5 34.7801 124.46 33.9601 123.68 33.2801C122.4 32.1401 122.2 31.8601 121.74 30.5601C121.46 29.7601 121.12 28.5601 121 27.9001C120.68 26.2001 120.38 25.4801 119.22 23.8001C117.88 21.8601 116.3 20.8801 114.24 20.6801C112.92 20.5601 110.52 19.9201 110.06 19.5601C109.94 19.4601 109.76 19.1001 109.7 18.7801C109.62 18.4601 109.5 18.2001 109.4 18.2001C109.14 18.2001 107.6 19.8801 107.6 20.1601C107.6 20.3001 107.74 21.0001 107.92 21.7001L108.24 22.9801L107.26 24.1801C106.74 24.8401 105.86 25.7001 105.34 26.1201C104.82 26.5201 104.4 26.9401 104.4 27.0601C104.4 27.1801 103.86 27.9601 103.2 28.8201C101.84 30.5601 101.72 31.1801 102.5 32.0001L102.98 32.5201L102.6 33.1601C102.36 33.5401 102.04 33.8001 101.8 33.8001C101.14 33.8001 98.4603 36.5201 98.3003 37.3201C98.1203 38.3201 97.6203 38.1801 96.8003 36.9001C96.2203 35.9801 96.0003 35.8001 95.5203 35.8001C95.2003 35.8001 94.6403 35.9801 94.2603 36.2201L93.6003 36.6401L93.6403 36.0601C93.6603 35.6801 93.4403 35.1201 92.9603 34.4001C92.5603 33.8001 92.0803 32.9201 91.9003 32.4401C91.6803 31.8801 91.4403 31.6001 91.2003 31.6001C90.9603 31.6001 90.7403 31.3601 90.6003 30.9401C90.4803 30.6001 90.0803 29.9601 89.7203 29.5401C89.0803 28.8201 89.0203 28.8001 88.7603 29.1601C88.6203 29.3601 87.8203 29.9801 87.0003 30.5001C85.6003 31.4001 85.4203 31.4601 83.8603 31.5601L82.2003 31.6601L81.7003 32.5201C81.1803 33.4001 80.2203 33.9201 78.9003 34.0401C78.4803 34.0801 78.1603 34.3201 77.7203 34.9401C77.1603 35.7401 77.1403 35.8201 77.3803 36.6201C77.7003 37.7001 77.4203 38.4001 76.4203 38.9601C76.0003 39.2001 75.1603 39.8001 74.5603 40.3001C73.2603 41.3601 72.6003 41.4801 72.6003 40.6401C72.6003 39.8201 71.5603 37.7801 70.7803 37.1001C70.4003 36.7601 69.7203 36.3401 69.2803 36.1401C68.1603 35.6401 67.8203 35.0001 68.2803 34.3001C68.5003 33.9601 68.5803 33.5801 68.5003 33.2201C68.4403 32.9001 68.4803 32.2601 68.6003 31.7601C68.8003 31.0201 68.9403 30.8201 69.4803 30.6401C69.8403 30.5001 70.3603 30.4001 70.6403 30.4001C70.9603 30.4001 71.2203 30.2401 71.3603 29.9401C71.5003 29.7001 71.7803 29.2601 72.0003 28.9801C72.4203 28.4801 72.4203 28.4601 72.0803 27.2401L71.7403 26.0001L72.2603 24.9401C72.5603 24.3601 72.8003 23.7801 72.8003 23.6601C72.8003 23.3001 72.1203 23.0001 71.3403 23.0001C70.3803 23.0001 70.0203 22.5401 70.4403 21.8401C70.6203 21.5401 70.9603 21.2001 71.2203 21.0601C71.8603 20.7201 72.2203 19.9601 72.0803 19.2001C71.8803 18.2401 71.3803 18.0201 69.7003 18.1401C68.3803 18.2401 68.2003 18.2201 67.4803 17.7201L66.7003 17.1801L66.0403 17.9001C65.4603 18.5401 65.3003 18.6001 64.7403 18.4801C64.3803 18.4201 63.9803 18.2601 63.8403 18.1401C63.6603 18.0001 63.4203 18.0201 63.0603 18.1801C62.3603 18.5001 62.1603 18.2401 62.4203 17.3201C62.7003 16.3401 62.5403 15.7801 61.7603 14.9001C61.1803 14.2201 61.1603 14.1201 61.2603 13.0001C61.4203 11.5001 61.1803 10.8001 60.5203 10.8001C59.9203 10.8001 59.6003 10.3001 59.6003 9.32011C59.6003 8.34012 59.2403 8.38013 57.7603 9.50012C56.4403 10.5001 55.8403 10.6001 55.0003 10.0001C53.9803 9.26012 52.6003 8.80013 51.4803 8.80013C50.4403 8.80013 50.3803 8.78012 50.2803 8.22012C50.1403 7.58012 49.7803 7.40012 48.4603 7.40012C47.3803 7.40012 46.7003 7.12012 45.8003 6.34012C45.4003 5.98012 44.7803 5.54012 44.4203 5.34012C43.9203 5.08012 43.8003 4.92012 43.9203 4.64012C44.3403 3.70012 44.2203 2.70012 43.5403 1.50012C42.8203 0.240128 42.4403 0.00012207 41.7003 0.400116C41.3203 0.600128 41.0603 0.580124 40.2803 0.320114C39.1403 -0.0598755 39.2003 -0.0598755 39.1003 0.240128Z" fill="#030712"/>
<path d="M24.9401 8.70019C24.7801 8.84019 24.5801 9.30019 24.5201 9.70019C24.3801 10.3802 24.3601 10.4002 23.4401 10.4002C22.9201 10.4002 22.0001 10.2802 21.4001 10.1202C20.8001 9.9802 19.9201 9.80019 19.4601 9.74019L18.6001 9.64019V10.6202C18.6001 11.5602 18.6401 11.6002 19.4001 12.0002C19.8201 12.2202 20.3601 12.4002 20.6001 12.4002C20.9001 12.4002 21.0001 12.5402 21.0401 12.9402C21.0601 13.2602 21.1001 14.0002 21.1401 14.6002C21.2001 15.9002 21.3001 17.5002 21.3601 18.2002L21.4201 18.7002L21.8001 18.2202C22.0601 17.9202 22.2001 17.4602 22.2001 16.9002C22.2001 16.1402 22.2801 16.0002 23.0001 15.5202C23.4401 15.2402 23.9401 14.7802 24.1201 14.5002C24.5401 13.8602 25.1401 13.8602 25.8201 14.5202C26.3201 15.0002 26.4401 15.0402 27.5801 14.9002C28.2601 14.8202 28.8001 14.7202 28.8001 14.6802C28.8001 14.6202 28.6201 14.2402 28.4001 13.8002C27.9601 12.9202 27.9001 12.0602 28.2201 11.3202C28.3401 11.0602 28.4001 10.6002 28.3201 10.3202C28.2201 9.9002 28.0601 9.82019 27.3401 9.76019C26.5601 9.70019 26.5001 9.66019 26.4401 9.04019C26.3801 8.4802 26.3001 8.40019 25.8001 8.40019C25.4801 8.40019 25.1001 8.54019 24.9401 8.70019Z" fill="#030712"/>
<path d="M24.7601 15.8402C24.0001 16.2802 23.6001 17.2202 23.6001 18.5802C23.6001 19.1002 23.6801 19.2002 24.1001 19.2002C24.5001 19.2002 24.7001 18.9802 25.2001 18.0002C25.7401 16.9202 26.0201 15.4002 25.6601 15.4002C25.5601 15.4002 25.1601 15.6002 24.7601 15.8402Z" fill="#030712"/>
</g>
<defs>
<clipPath id="clip0_128_2597">
<rect width="204.8" height="204.8" fill="white"/>
</clipPath>
</defs>
</svg>
