<svg width="205" height="205" viewBox="0 0 205 205" fill="none" xmlns="http://www.w3.org/2000/svg">
<g clip-path="url(#clip0_128_2571)">
<path d="M175.32 0.499847C175.24 0.779846 174.96 1.13985 174.7 1.31985C174.22 1.63985 174.16 1.61984 173.8 1.29985C173.28 0.839844 172.78 1.03984 172.2 1.99985C171.74 2.75984 171.66 2.79985 170.7 2.79985C170.16 2.79985 169.6 2.87985 169.48 2.95985C169.06 3.25984 168.6 4.09985 168.6 4.59985C168.6 5.01985 168.46 5.15985 167.76 5.39984C167.24 5.57985 166.8 5.89984 166.62 6.23985C166.34 6.71985 166.34 6.79985 166.66 7.15985C167.12 7.67986 167.1 7.79985 166.28 9.17986L165.56 10.3998H164.32C163.4 10.3998 162.7 10.5798 161.44 11.0798C160.52 11.4599 159.22 11.8199 158.52 11.8998C156.94 12.0798 156.36 12.5999 155.3 14.8199C154.62 16.2598 154.52 16.3799 153.64 16.6998C153.12 16.8998 152.52 17.2798 152.28 17.5598C151.84 18.0999 151.88 18.0999 149.3 17.6198C148.32 17.4398 147.76 17.6799 146.1 18.9998C145.44 19.5199 144.18 20.4398 143.3 21.0199L141.7 22.0999H138.1C134.54 22.0999 134.5 22.0999 133.56 22.6398C133.04 22.9599 132.5 23.1998 132.36 23.1998C132.22 23.1998 131.76 23.3799 131.36 23.5999C130.94 23.8199 129.92 24.0598 128.96 24.1799C126.64 24.4198 124.94 25.1599 123.8 26.4198C123.02 27.2999 122.72 27.4599 121.5 27.7798C119.96 28.1798 118.52 28.9599 116.7 30.3998C116.04 30.9198 114.92 31.7198 114.2 32.1998C113.48 32.6798 108.26 36.3398 102.58 40.3199L92.26 47.5798L89.7 50.3598L87.16 53.1398L85.06 53.8199L82.94 54.4998L81.94 55.9998C81.4 56.8198 78.92 60.2198 76.42 63.5199C72.7 68.4798 71.76 69.6198 71.08 69.9599C70.5 70.2598 70.02 70.7598 69.3 71.8598L68.32 73.3598L66.9 73.4798C66.08 73.5598 64.4 73.4998 62.8 73.3198C57.74 72.7399 53.5 72.3998 51.48 72.3998C49.68 72.3998 49.32 72.3398 47.78 71.7198C46.86 71.3598 45.64 70.9998 45.06 70.9198L44.02 70.7798L42.2 73.4398C41.2 74.8998 39.76 76.9598 39 77.9998L37.62 79.8998L36.46 80.0398C34.08 80.3398 34 80.3598 34 80.9798C34 81.8398 32.88 82.5998 32.5 81.9998C32.34 81.7398 31.26 81.7398 31.1 81.9998C30.9 82.3198 29.74 81.9798 28.96 81.3598C28.5 80.9998 27.46 80.5598 26.26 80.2198C25.18 79.8998 23.58 79.3598 22.72 79.0198L21.14 78.3798L20.4 79.0998C19.46 80.0198 18.84 81.9598 18.48 85.0998L18.24 87.2998L18.94 90.1398L19.66 92.9998L19.26 96.7598C18.62 102.56 18.92 103.82 21.56 106.7C22.38 107.58 22.94 108 23.74 108.3C24.4 108.54 25.74 109.44 27.2 110.58C29.72 112.56 30.44 113.44 31.06 115.3C31.3 116 31.6 116.42 32.06 116.72C32.66 117.12 32.76 117.32 33.04 118.72C33.22 119.6 33.6 120.82 33.88 121.46C34.3 122.4 34.5 122.64 34.98 122.72C35.52 122.84 35.56 122.9 35.66 124.16C35.72 124.9 35.84 125.66 35.9 125.84C36.02 126.12 35.94 126.2 35.58 126.2C34.64 126.2 34.58 126.4 35 128C35.38 129.48 35.38 129.54 35.02 130.96C34.68 132.22 34.48 132.58 33.36 133.84C32.68 134.62 31.52 135.74 30.82 136.32C29.52 137.4 28.94 138.24 26.56 142.5C25.48 144.44 25.44 144.56 25.32 146.42C25.18 148.3 25.2 148.44 27 156.58C28.56 163.6 29.06 165.52 30.32 169.2L31.8 173.52L31.48 174.46C31.2 175.28 31.06 175.42 30.4 175.62C29.7 175.84 29.54 176.02 28.52 178C27.56 179.84 27.4 180.3 27.4 181.24C27.4 182.24 27.3 182.46 26.1 184.2L24.78 186.1L26.54 186.68C27.94 187.14 28.58 187.48 29.74 188.42C30.52 189.08 31.32 189.6 31.5 189.6C31.7 189.6 32.34 189.88 32.96 190.24C34.7 191.24 36.76 191.56 39.7 191.3C42.9 191.02 46.36 190.1 46.64 189.48C46.76 189.22 47.1 188.96 47.42 188.9C48.08 188.74 48.24 188.56 49.1 186.98L49.76 185.74L51.7 184.96C53.48 184.24 53.66 184.22 53.9 184.52C54.08 184.78 54.32 184.82 55.04 184.72L55.94 184.58L56.82 186.04L57.7 187.5L59.1 187.62C60.32 187.72 60.66 187.68 61.7 187.22C62.36 186.94 63.38 186.4 63.98 186.02C64.6 185.64 65.44 185.3 65.9 185.26C66.64 185.16 66.74 185.2 66.96 185.72L67.22 186.26L67.74 185.74C68.26 185.24 68.28 185.22 68.84 185.56C69.38 185.88 69.42 185.86 69.84 185.46C70.22 185.06 70.24 184.94 70.04 184.24C69.9 183.8 69.8 183.36 69.8 183.26C69.8 183.14 70.38 182.54 71.1 181.9C72.36 180.8 72.52 180.72 74.72 180.18C75.98 179.86 77.1 179.64 77.18 179.7C77.28 179.74 77.42 180.02 77.48 180.3C77.56 180.58 77.8 181.3 78 181.88C78.4 182.92 78.46 182.98 81.48 184.9C83.92 186.46 84.64 187.02 85.04 187.7L85.54 188.54L85.06 189.72C84.68 190.66 84.62 190.98 84.8 191.26C84.98 191.56 84.96 191.72 84.72 191.98C84.04 192.74 84.62 194 86.06 194.9L86.96 195.48L86.68 196.26C86.52 196.7 86.4 197.26 86.4 197.52C86.4 198.38 88.58 200.38 89.86 200.7C90.16 200.78 90.58 201.14 90.82 201.52C91.06 201.9 91.46 202.26 91.76 202.34C92.06 202.4 92.7 202.74 93.2 203.08C93.74 203.46 94.92 203.94 96.14 204.28L98.18 204.84L99.22 204.2C100.52 203.4 101.06 203.18 102.18 203C102.96 202.88 103.28 202.96 104.74 203.62C105.66 204.06 106.44 204.4 106.48 204.4C106.5 204.4 106.76 203.78 107.02 203.02C107.46 201.68 107.52 201.6 108.4 201.28C109.6 200.84 110.44 200.32 111.86 199.12L113.06 198.14L113.54 198.68L114.02 199.24L114.78 198.74C115.66 198.16 116.3 198.1 119.6 198.3C121.28 198.4 122 198.36 123.2 198.06C124.64 197.7 125.1 197.7 134.16 197.98C139.34 198.14 143.64 198.22 143.68 198.18C143.84 198.04 145.82 190.32 146.08 188.9C146.3 187.68 146.52 187.24 147.74 185.5C148.5 184.4 149.38 182.86 149.68 182.1C149.98 181.32 150.56 180.16 150.96 179.52C151.56 178.52 151.66 178.18 151.62 177.32L151.56 176.34L153.38 174.56L155.2 172.8V171.62C155.2 170.48 155.18 170.44 154.52 170.12C154.14 169.94 153.7 169.8 153.52 169.8C153.3 169.8 153.2 169.62 153.2 169.16C153.2 168.78 153.02 168.34 152.78 168.06C152.38 167.64 152.36 167.54 152.58 166.46C152.82 165.34 152.78 159.46 152.54 158.8C152.4 158.44 152.22 156.98 152.08 155.1C151.94 153.56 151.84 153.8 153.8 151.26C154.3 150.62 154.86 149.98 155.04 149.84C155.22 149.72 155.44 149.3 155.52 148.94C155.68 148.2 157.06 146.2 158.04 145.28C158.94 144.42 160.48 143.94 161.76 144.12C162.66 144.24 162.9 144.18 164.12 143.52C166.64 142.2 167.26 141.62 168.16 139.76C168.96 138.16 169 138 169 136.22C169 134.52 169.04 134.28 169.5 133.68C169.82 133.26 170 132.76 170 132.3C170 130.92 170.58 129.14 171.3 128.4C172.38 127.26 173.94 124.26 174.1 123C174.26 121.76 174.74 121.12 176.52 119.8C177.62 118.98 178.32 117.94 178.92 116.22C179.48 114.64 180.76 113.62 182.78 113.2L184.3 112.88L185.36 110.08L186.44 107.3V103.9V100.5L185.44 96.6998C184.88 94.5998 184.14 91.6998 183.8 90.2398L183.16 87.5598L179.82 81.7398C177.98 78.5198 175.74 74.7598 174.84 73.3598L173.2 70.8198L175 66.2798L176.78 61.7198L175.82 60.0199C174.92 58.4198 174.84 58.1798 174.72 56.4998C174.64 55.4998 174.36 53.4798 174.1 51.9998C173.84 50.5199 173.42 48.1798 173.2 46.7999C172.96 45.4198 172.74 44.1198 172.68 43.8799C172.58 43.4798 172.68 43.4599 174.52 43.3398C176.3 43.2198 176.52 43.1599 177.08 42.6398C177.42 42.3199 178.1 41.8998 178.6 41.7198C181.58 40.5798 181.82 39.9798 180.6 36.6998C179.96 34.9798 179.8 34.2798 179.8 33.2198C179.8 31.4599 179.26 27.1398 178.9 25.9998C178.76 25.4998 178.52 24.5798 178.4 23.9599C178.2 22.9599 178.22 22.7399 178.56 22.0598C178.78 21.6398 179.16 21.1198 179.4 20.8998C180.12 20.2399 181 18.8598 181 18.3598C181 17.5999 182.84 16.2999 184.68 15.7598C185.9 15.3998 186.18 15.2598 186.08 14.9998C186 14.8398 185.92 13.2999 185.88 11.5598C185.86 9.69984 185.7 7.79985 185.52 6.85985C185.34 5.99985 185.08 4.25984 184.94 2.99985L184.7 0.719849L184.06 0.519852C183.18 0.279846 182.84 0.599854 182.76 1.75984C182.72 2.49985 182.6 2.73985 182.22 2.91985C181.84 3.11984 181.64 3.09985 181.1 2.75984C180.72 2.55984 180.32 2.23985 180.2 2.07985C179.86 1.69984 179.24 1.71985 178.38 2.17986L177.64 2.57985L177.26 2.13985C177.04 1.89984 176.76 1.31985 176.62 0.839844C176.42 0.159851 176.3 -0.000152588 175.92 -0.000152588C175.58 -0.000152588 175.4 0.139847 175.32 0.499847Z" fill="#030712"/>
</g>
<defs>
<clipPath id="clip0_128_2571">
<rect width="204.8" height="204.8" fill="white"/>
</clipPath>
</defs>
</svg>
