<svg width="128" height="128" viewBox="0 0 128 128" fill="none" xmlns="http://www.w3.org/2000/svg">
<path d="M87.864 12.64V17.504L92.088 26.976L92.216 71.392L90.808 71.904L91.32 74.08L90.04 75.744L92.216 78.816L92.6 82.272L90.296 86.112L90.552 87.264L88.888 88.032L87.352 91.36L86.2 90.848L85.304 92.256L86.456 93.408L85.048 94.816L86.072 95.072L84.664 95.584V98.528H83.896L84.664 99.808H83.896L84.664 100.96L83 103.392L84.024 106.08L78.264 108L78.776 113.632L77.624 114.016L70.584 111.072L67.896 114.016L68.664 115.68H68.024L66.488 113.76L65.848 114.016L66.36 115.168L64.568 114.144L63.032 110.176L63.8 107.872L63.032 105.312V102.624L57.016 97.248L54.2 96.096L50.744 92.256L50.616 90.08L53.432 84.448L54.072 80.352L49.976 78.304L47.672 79.712L46.648 79.072L45.112 72.16L36.792 63.712L35.256 58.336L35 53.6L35.512 51.808L37.048 51.168L36.92 47.712L40.376 45.92L43.576 40.416L43.192 37.728L41.528 35.552L42.552 32.224L47.288 31.968L50.872 30.176L54.584 24.672L55.096 19.68L51.768 16.992L51.512 14.816L48.824 12L87.864 12.64Z" fill="#030712"/>
</svg>
