<svg width="128" height="128" viewBox="0 0 128 128" fill="none" xmlns="http://www.w3.org/2000/svg">
<path d="M97.584 13.408L97.84 81.632L96.688 82.528L97.84 84.704L96.688 86.496L98.48 87.008L98.224 89.44H95.408L90.544 92.128L88.88 91.104L84.912 91.488L85.68 95.712L83.632 98.144L82.096 98.4L80.816 102.24L78.512 103.392L77.232 102.88L75.568 105.696L75.056 109.664L72.624 111.456L68.272 108.64L67.76 106.208L65.584 105.312L66.992 106.336L64.944 107.616L64.176 106.464L64.304 108.512L63.024 109.152L62.896 112.096L61.488 112.608L60.72 114.272L60.08 113.632L60.208 112.864L57.648 112.224L56.88 110.304L52.784 112.224L50.608 115.68L49.84 114.4L44.464 111.584L41.392 112.224L40.624 110.816L40.752 112.864L39.984 114.4H38.96V112.608L36.4 112.864L34.096 111.968L33.712 112.608L34.096 114.4L33.2 115.552L30.256 114.784L31.664 114.272L30 112.608L31.664 112.224V108.384L33.072 107.744L31.792 107.232L33.712 105.568L32.56 103.904L33.712 102.112L34.48 102.624L35.248 101.6L35.632 102.112L37.424 98.784L37.296 97.888L39.728 97.12L39.6 95.072L42.928 90.336L42.16 87.136L42.544 84.96L39.984 80.736L41.264 78.432L41.008 75.36L42.8 74.464L44.208 12.64L45.616 14.048L46.256 13.408L46.384 14.816L48.944 15.328L53.68 14.048L57.52 12L97.584 12.128V13.408Z" fill="#030712"/>
</svg>
