<svg width="128" height="128" viewBox="0 0 128 128" fill="none" xmlns="http://www.w3.org/2000/svg">
<path d="M106.208 108.512V106.208V108.512ZM68.576 56.672H66.272V54.368H68.576V56.672ZM73.312 47.328V45.152V42.72V47.328ZM84.96 42.72L87.52 45.152H89.824L92.128 47.328H94.56L101.728 51.936V56.672V54.368L99.168 56.672L101.728 59.104V68.576L99.168 71.008V73.312L94.56 75.744V80.352L99.168 82.528V80.352H101.728V75.744H103.904L106.208 73.312L110.944 75.744V77.92L115.68 92L113.376 99.168V101.6V99.168H110.944L108.512 101.6V103.776L106.208 106.208V108.512V110.944L101.728 115.68H84.96H56.672L59.104 113.248L61.536 106.208L63.84 99.168V92V89.696V87.392V89.696L59.104 82.528L61.536 77.92V73.312L63.84 68.576V63.84L66.272 61.408V59.104L68.576 56.672V59.104L73.312 54.368L71.008 59.104L73.312 61.408V56.672V61.408L75.744 56.672V51.936L80.352 49.76L77.92 47.328L80.352 45.152V42.72H84.96ZM87.52 42.72V45.152L84.96 42.72H87.52ZM99.168 37.856V40.16L94.56 37.856H96.992H99.168ZM92.128 35.552L89.824 33.12H92.128V35.552ZM92.128 33.12H89.824V30.688V28.512H92.128L89.824 30.688L92.128 33.12ZM59.104 30.688V28.512V30.688ZM35.68 19.168L37.856 21.472L35.68 23.776H37.856L40.288 21.472L37.856 23.776L40.288 21.472H45.152L47.328 23.776L49.888 28.512L52.064 30.688L54.368 28.512L56.672 30.688H59.104L66.272 25.952H73.312L80.352 23.776V30.688H82.528H84.96H87.52L89.824 33.12V35.552H92.128V37.856H94.56V40.16L87.52 37.856L84.96 40.16V37.856L82.528 42.72L80.352 37.856H73.312L71.008 40.16H68.576H63.84V42.72H61.536L59.104 47.328V45.152V42.72V40.16L56.672 42.72V45.152H54.368V40.16V45.152L47.328 54.368H45.152V49.76H42.72L45.152 45.152L40.288 42.72V40.16L35.68 37.856H30.688L28.512 35.552L16.736 30.688L14.304 28.512H12L19.168 23.776H26.08L28.512 19.168H30.688L35.68 16.736V19.168ZM45.152 12L42.72 14.304L40.288 16.736L37.856 21.472L35.68 19.168H37.856V16.736V19.168L35.68 16.736L40.288 12H45.152Z" fill="#030712"/>
</svg>
