<svg width="128" height="128" viewBox="0 0 128 128" fill="none" xmlns="http://www.w3.org/2000/svg">
<path d="M41.784 20.448L45.112 18.784L46.776 20.704H48.312V22.24L49.464 23.264L58.04 25.056L59.448 26.976L62.52 26.848L63.16 25.824L65.464 25.184L68.92 25.568L72.504 26.848L71.864 28.256L74.296 28.512L75.832 32.224L76.6 31.84L76.856 30.432L79.288 30.048L80.312 31.968L83.256 32.864L83.768 34.4L85.048 35.04H88.888L93.368 31.84L95.032 34.528L102.2 33.504L104.76 35.552L106.296 35.04L108.984 35.424L94.392 42.592L86.456 51.552L79.416 57.184L77.88 59.744H77.112V69.984L72.12 73.312L69.432 77.024L69.816 79.2L71.48 79.328L72.504 81.76L71.48 84.448V86.88L70.84 88.032L71.48 90.464L70.712 93.28L73.656 96.096L76.088 96.736L77.24 98.528L79.8 99.168L85.432 105.44L88.888 106.464L90.168 108.512L90.936 115.552L57.272 115.68L23.992 114.912L25.272 82.912L24.248 81.376L22.456 80.48L20.664 77.664L24.248 73.44L24.76 67.936L22.456 59.232L22.84 54.24L22.2 52.96L22.456 42.208L19.64 32.736V25.824L20.28 23.776L19 17.376L41.4 18.144L41.784 20.448ZM43.96 12L45.752 12.128L46.008 13.152L45.496 14.816L43.96 15.584V12Z" fill="#030712"/>
</svg>
