<svg width="128" height="128" viewBox="0 0 128 128" fill="none" xmlns="http://www.w3.org/2000/svg">
<path d="M79.112 15.048L83.208 81.48L82.44 88.136L86.92 94.024V97.352L89.352 100.424L88.968 101.32L90.376 101.064V101.704L87.56 108.36L84.232 108.104L80.008 110.92H77.96L76.296 113.352L73.352 115.4L39.688 114.248L37.128 110.152L37 108.36L38.152 104.776L39.432 103.368L40.456 93.512L41.48 91.976L41.864 81.736L43.784 79.688L44.552 75.336L47.24 72.776L48.008 68.936L50.44 65.352L49.928 64.2L51.72 60.36L52.104 53.32L53.768 51.016L57.48 50.76L62.344 46.664L64.392 44.104L64.776 41.928L66.056 41.288L63.624 35.272L67.08 29.128L66.44 25.032L69.896 16.84L68.872 15.944L72.456 13.384L76.68 15.304L78.728 13L79.112 15.048Z" fill="#030712"/>
</svg>
