<svg width="128" height="128" viewBox="0 0 128 128" fill="none" xmlns="http://www.w3.org/2000/svg">
<path d="M37.024 32.896H37.92L40.224 34.688L41.632 40.832L46.496 42.368L51.36 40.064L56.736 40.448L58.144 41.6L60.832 41.472L63.648 40.064H67.744L74.528 37.12L79.648 36.736L80.544 35.84L102.816 35.2L104.224 37.632L106.4 38.656L107.552 41.344L103.968 49.92V51.584L102.048 54.144L100.384 59.392L100.64 61.056L102.944 61.184L103.968 62.592L103.072 63.616L103.456 64.896L102.56 67.84L103.968 95.36L64.672 96L23.328 95.104L21.792 93.312L21.152 89.856L21.664 85.376L20 82.432L21.664 79.36L22.688 75.008L23.2 74.624L23.328 75.776L24.352 73.856L25.12 74.496L24.736 72.832L23.2 74.368L24.608 70.528L25.248 69.248L26.144 69.632L25.504 69.12L24.736 69.632L26.016 60.672L26.528 58.88L27.04 59.136L26.4 58.368L26.912 55.936H27.424L26.912 55.552V52.736L28.064 47.872L27.936 45.184L28.832 44.032L28.32 43.52L28.576 41.984L28.832 43.008L29.472 42.752L28.576 41.6L29.472 39.936L28.832 40.192L28.32 38.784L28.448 36.096L29.088 34.816L28.576 32L30.368 32.896L30.496 33.792L30.752 33.28L29.984 32.512L30.88 32.384L31.648 32.64L33.696 32L34.72 33.28L35.744 33.408L37.024 32.896Z" fill="#030712"/>
</svg>
