<svg width="128" height="128" viewBox="0 0 128 128" fill="none" xmlns="http://www.w3.org/2000/svg">
<path d="M119.232 54.4L117.696 55.04L114.752 60.16L111.296 63.616L112.832 66.688L112.064 68.608L110.4 69.632V71.168L110.528 74.24L112.704 74.496L113.728 78.08H114.752L119.616 83.968L112.448 89.344L112.064 91.136L106.432 93.44L103.232 92.8L101.184 93.824L99.904 96H92.864L8 95.616L9.664 38.656L15.296 36.224L17.984 34.176L17.088 35.456L23.872 32V38.656H106.688L108.224 39.936L108.608 41.344L111.552 42.624L112.32 48.512L113.728 50.816L118.464 52.224L119.232 54.4Z" fill="#030712"/>
</svg>
