<svg width="128" height="128" viewBox="0 0 128 128" fill="none" xmlns="http://www.w3.org/2000/svg">
<path d="M55.808 113.864L53.248 114.12L52.224 113.224L51.84 111.816L52.608 109.256L54.784 108.104V105.16L56.32 105.672V109.384L57.856 112.456L55.808 113.864ZM71.424 77.768L70.784 77L70.912 72.904L72.448 71.368L71.424 70.344L72.832 64.456L74.624 65.48V68.936L73.472 75.592L71.424 77.768ZM85.12 73.416L85.504 74.568L82.688 73.672L79.488 77.512L77.824 77L75.648 78.92L74.88 78.408L75.392 75.976L78.976 73.928L77.568 70.856L78.976 67.912V65.48L81.536 62.408L82.56 58.184L86.784 54.6L85.504 60.744L85.12 73.416ZM95.232 71.752L89.856 76.872L88.576 72.904L89.088 70.856L87.68 61.256L87.936 56.264L89.088 52.552L94.72 54.6L93.696 60.744L94.72 62.408L95.232 71.752ZM73.088 27.208L76.544 27.848L76.032 38.6L77.824 40.52L82.56 44.232L85.12 48.712L84.736 52.296L82.56 54.088L79.744 54.728L78.976 51.784L81.024 44.232L79.744 43.592L78.976 47.432L76.672 46.152L74.88 44.616L73.472 39.24L71.808 36.168V45L73.728 47.176L74.496 48.584L72.448 52.68L70.912 51.144L68.992 50.504L66.816 52.552L68.992 53.704L70.4 58.184L69.888 60.36L66.944 64.712L68.864 68.936L68.992 74.824L68.864 77L63.36 88.648L62.464 89.032L58.368 87.624L54.4 87.88L39.552 93.128L32 94.536L33.024 86.088L34.176 83.528L35.2 83.016L36.224 71.368L36.096 13.64L72.064 13L73.088 27.208Z" fill="#030712"/>
</svg>
