<svg width="128" height="128" viewBox="0 0 128 128" fill="none" xmlns="http://www.w3.org/2000/svg">
<path d="M49.808 35.584L49.68 34.944L49.808 34.816L50.064 35.2L49.808 35.584ZM55.184 38.016L54.16 36.224V34.176L55.184 36.096V38.016ZM53.008 33.024L51.984 32.256L52.624 32L53.008 33.024ZM34.064 16.256L71.44 16.64V35.584L100.368 35.2L102.288 111.36L64.144 112L26 111.36L28.688 16L34.064 16.256ZM45.328 23.296L43.024 23.936L43.664 24.704L43.024 25.344L44.048 29.184L43.024 30.08L43.664 30.336L44.56 29.184L45.584 30.336L46.48 32L46.608 35.456L48.528 36.736L49.68 38.784L50.448 36.736L51.728 41.216L52.624 41.6L54.928 39.936L55.824 38.016L58.64 36.224L56.08 34.304L53.904 30.464L53.008 30.336L54.16 29.056L56.208 29.184L56.848 28.16H53.648V27.136L51.984 26.88L52.624 31.104L51.6 31.744L50.32 27.52L48.528 27.264L47.248 25.984L47.76 23.296L46.608 22.4L45.328 23.296Z" fill="#030712"/>
</svg>
