<svg width="128" height="128" viewBox="0 0 128 128" fill="none" xmlns="http://www.w3.org/2000/svg">
<path d="M81.16 40.416L80.904 56.16L85.64 53.088L89.864 48.224L91.272 47.84L93.448 48.608L96.904 45.152L97.672 43.104L98.568 43.744L98.312 44.896L99.976 45.536L105.224 46.176L105.864 45.408L105.48 44.512L106.248 44.128L105.864 43.36L109.32 42.848L111.752 40.672L116.616 44L119.688 43.488L120.072 44.512L119.048 44.896L119.56 46.56L120.072 45.536L120.328 47.072L121.736 46.816L120.712 48.48L122.12 49.248L122.504 52.064L120.328 57.952L108.552 48.608L106.632 54.368L106.248 57.568L102.536 62.816L100.232 64.736H98.568L95.752 68.96L92.68 67.296L85.896 80.352L80.392 78.56L79.624 76L77.192 75.232L73.352 84.96L70.664 87.648L68.488 93.152L63.496 98.912L61.32 102.88L63.112 104.8L60.936 106.336L61.192 108L57.48 110.688L55.432 109.28L50.312 112.096L47.752 110.688L46.856 113.632L38.28 115.808L35.336 112.864L30.344 116.96L27.784 116.704L23.432 114.144L19.976 108.64L20.616 106.592L16.904 105.568L12.68 101.856L8.456 93.92L8.712 92.768L5 87.264L6.536 84.448L6.408 79.072L12.424 78.56L13.832 74.08L16.136 73.44L15.752 68.32L19.592 61.664L20.872 61.024L22.28 62.048L23.304 65.632L25.096 63.328L26.504 63.84L25.352 59.36L27.144 58.592V56.544L28.68 53.728H30.984L32.008 51.552L33.8 49.632H35.08L36.232 51.552L39.688 49.888L47.88 43.104L49.16 40.416L48.264 38.88L49.928 35.808V34.144L51.08 33.888L51.592 29.408L54.792 21.984L54.152 19.936L54.792 17.504L53.384 13.152L56.84 12L56.456 40.416H81.16Z" fill="#030712"/>
</svg>
