<svg width="128" height="128" viewBox="0 0 128 128" fill="none" xmlns="http://www.w3.org/2000/svg">
<path d="M109.16 52.168H109.928L110.184 53.064L109.16 53.32L109.288 55.624L108.392 55.368L109.288 56.264L107.112 59.208L107.24 60.104L104.808 63.048L103.656 61.512L103.784 59.848L105.448 57.8L105.832 55.112L107.752 54.344L109.16 52.168ZM110.696 49.48L111.976 49.608L111.848 51.016H110.184L110.696 49.48ZM51.0475 19.528L49.8955 20.04L53.0955 17.48L53.3515 18.248L51.0475 19.528ZM53.8635 16.2V16.84L52.1995 16.456L54.2475 15.688L53.8635 16.2ZM49.7675 15.944L50.5355 17.096L47.7195 23.496L50.1515 22.856L50.5355 21.448L53.3515 23.624L55.9115 23.88L56.2955 25.032L58.7275 25.672L60.3915 29.64L76.1355 33.864L80.4875 36.168L85.2235 36.424L90.7275 37.96L92.2635 39.624L92.0075 41.416L95.4635 42.312L96.8715 43.72L96.9995 48.072L95.8475 50.76L99.0475 50.504L98.4075 54.856L100.456 56.648L99.6875 59.208L96.6155 61L93.5435 68.68L94.5675 69.448L95.5915 69.192L98.1515 66.632L100.968 62.408L103.016 61.512L104.808 63.304L101.736 74.056L102.76 76.872L100.456 79.176L99.0475 82.888L99.6875 88.136L96.6155 98.12L96.8715 103.496L99.0475 108.872L98.9195 115.4H51.5595L50.7915 112.2L45.6715 110.92L44.3915 109L43.1115 100.808L44.3915 97.352L42.5995 96.072L41.9595 93.768V87.88L41.3195 83.528L39.5275 81.48L35.5595 80.328L33.1275 78.152L31.0795 74.056L28.5195 71.752L25.5755 70.728L23.9115 68.296L20.8395 67.656L17.3835 64.456L18.5355 60.488L17.7675 57.16L18.5355 56.008V52.296L20.3275 49.48L19.0475 46.152L16.9995 46.024V43.08L19.8155 38.472L24.4235 35.912H25.5755L26.7275 34.888L26.9835 21.832H28.0075L29.9275 19.4L31.9755 21.448L34.6635 21.192L40.5515 19.4L43.6235 17.096L45.1595 17.736L47.4635 15.944L48.7435 15.304L49.7675 15.944ZM51.5595 16.456L50.4075 15.944L50.7915 15.432L51.5595 15.944V16.456ZM47.7195 15.304L47.2075 15.048L47.7195 14.408L48.1035 14.792L47.7195 15.304ZM55.9115 14.408L54.8875 14.792L55.9115 13V13.896V14.408Z" fill="#030712"/>
</svg>
