<svg width="128" height="128" viewBox="0 0 128 128" fill="none" xmlns="http://www.w3.org/2000/svg">
<path d="M80.792 115.552H80.664L81.56 115.168L80.792 115.552ZM90.648 115.168L89.88 115.552L89.624 115.04L90.648 115.168ZM79 114.784L78.488 115.68L77.336 115.04L79 114.528V114.784ZM88.6 115.168L84.632 114.784V114.528H85.784L88.6 115.168ZM91.8 12.384H94.744L96.28 14.176L89.624 79.2L91.16 112.096L89.88 113.12L87.576 111.328L84.76 112.224L81.56 110.176L80.536 110.816L82.584 111.072L75.672 113.12L74.008 111.712L73.368 112.48L74.136 113.248L72.088 114.528L71.704 115.68H69.528L67.608 110.048L65.176 107.616L64.28 105.056L66.2 98.528L31 97.632L32.536 96.736L31.128 92.128L33.432 91.488L34.2 88.8L33.432 87.008L35.224 85.472L37.016 79.968L42.008 76.128L41.624 73.568L43.032 73.312L45.464 69.6L41.624 66.4L42.008 64.224L40.728 62.56L42.52 61.28L40.984 59.744L42.648 56.416L40.984 55.264V52.576L42.52 51.424L42.008 48.992L40.728 48.096L42.008 44.896L40.088 42.72L41.112 42.464L41.496 41.184L40.088 40.416L43.416 37.6L43.16 36.064L43.544 35.04L42.648 33.632L46.616 32.224L45.464 30.176L46.744 29.024L47.896 27.36H48.536L48.792 25.568H50.328L51.992 24.544L52.504 18.144L53.912 18.016L54.552 15.968L57.752 13.92L57.112 12L91.8 12.384Z" fill="#030712"/>
</svg>
