<svg width="128" height="128" viewBox="0 0 128 128" fill="none" xmlns="http://www.w3.org/2000/svg">
<path d="M76.68 95.608H74.504L73.096 94.712L75.656 95.608L76.68 93.304H78.728L76.68 95.608ZM81.16 89.08L79.88 90.104L85.384 79.992L84.232 84.6L81.16 89.08ZM88.84 35.192L87.688 38.392L84.232 40.568V38.392L82.056 41.848L79.88 46.072V49.4L82.056 50.424H84.232L88.84 52.6L89.736 51.576L88.84 49.4L89.736 51.576V57.208L87.688 65.912V68.216L86.28 78.968H85.384L87.688 69.368L86.28 66.808V69.368L84.232 70.264L85.384 71.416L84.232 72.44L85.384 73.592L83.208 78.968V82.552L77.704 89.08L78.728 91.256L76.68 89.08H75.656V92.152V93.304H73.096V95.608H74.504L75.656 97.784L71.048 99.832L72.072 97.784V96.76L69.896 99.832H67.848L66.568 101.112H69.896L66.568 104.44L65.544 107.896H63.496L65.544 108.92L62.344 112.248V113.144L58.888 115.704L56.712 116.6V112.248L58.888 108.92L57.864 105.592H54.664L53.384 104.44L50.312 105.592L49.16 103.288L46.728 99.832H44.552L43.528 97.784L42.504 98.936L37 92.152V91.256H37.896V89.08L37 86.776L41.352 77.944L44.552 76.92L50.312 75.768L52.36 73.592L51.336 71.416H52.36L57.864 66.808L63.496 63.736L64.392 62.584L56.712 53.624L55.816 51.576H54.664L52.36 46.072L49.16 44.92V37.24L50.312 35.192H52.36L53.384 31.864L51.336 27.256L54.664 24.056L57.864 20.728L60.04 14.072L62.344 11.896L65.544 11L91.912 26.232L90.888 29.688L88.84 35.192Z" fill="#030712"/>
</svg>
