<svg width="128" height="128" viewBox="0 0 128 128" fill="none" xmlns="http://www.w3.org/2000/svg">
<path d="M108.96 51.712L105.888 53.376L107.296 56.064L106.784 59.008L107.296 60.672L104.736 67.072L104.48 71.168H103.456L103.712 72.576L102.304 75.264L102.944 76.672L102.304 79.36L95.136 85.632L92.192 87.04L91.04 85.376H90.016L88.096 87.04L87.584 88.96H85.536L84 91.648V93.568L82.592 93.952L83.616 95.232L84 97.792L82.592 97.536L81.184 99.712L80.16 96.64L79.008 95.872L77.856 96.384L74.656 102.144L75.424 106.752L72.992 107.392L72.096 111.232L66.464 112L64.416 108.928L61.728 107.392L60.064 103.168L57.376 104.064L54.816 106.752L51.616 107.008L50.464 105.472L47.136 104.064L44.96 104.832L44.448 105.984H43.04L39.84 102.4L37.664 101.888L35.36 102.144L32.672 100.736L30.752 95.488L27.68 93.056L24.096 93.696L22.176 91.776L20 93.056L22.304 23.424L49.184 23.168L56.736 26.112L58.656 28.288L60.704 28.416L61.472 27.008L64.544 29.184L57.376 30.336L60.064 31.36L62.624 30.208L66.336 31.36L64.8 29.696L67.488 31.872L69.408 32.256L77.856 29.184L83.744 29.44L91.424 23.168L108.064 16L108.96 51.712Z" fill="#030712"/>
</svg>
