<svg width="128" height="128" viewBox="0 0 128 128" fill="none" xmlns="http://www.w3.org/2000/svg">
<path d="M105.784 83.096V81.944L106.296 81.432V81.944L105.784 83.096ZM28.216 15.512L61.624 17.176L61.88 19.864L64.824 18.456L68.536 23.064L68.664 27.288L97.464 28.056L125.624 55.704L124.856 55.96L125.624 56.984L120.76 59.16L116.28 63.256L111.416 70.424L110.136 76.568L109.368 74.136L107.96 73.624L109.88 69.656L108.984 70.68L107.192 74.136L110.136 77.72L109.24 79L107.96 78.232V79.512L106.296 78.488L107.448 80.024L105.528 81.432L105.016 82.968L102.328 83.608L101.56 82.2L99.896 82.968L98.872 85.4L99.384 86.04L100.408 85.4L99.896 86.04L93.752 91.032L91.576 89.752L91.96 88.088H90.552L91.064 90.264H90.04L92.728 91.544L92.472 92.696L90.552 94.232L88.632 94.488L89.016 95.64L84.664 96.92L82.488 95.128L83.896 97.176L80.696 99.608L79.8 98.072L79.032 99.864L75.064 97.176L75.32 98.584H71.608L71.48 99.352L76.856 99.864L73.912 100.504L77.368 101.528L75.064 103.704L78.008 101.784L77.112 104.472L72.632 106.392L72.12 100.376H71.48V105.24L69.432 103.448L68.664 99.352L66.744 97.816L68.536 104.728L71.48 107.928L67.768 111.128L68.92 108.184L68.664 106.904L65.976 113.56L63.032 111.896H61.112L58.936 108.696L59.704 104.728L57.912 99.608L52.536 95.128V91.544L50.104 85.912L49.592 82.456L43.192 78.744L42.936 77.08L41.016 75.544L41.272 74.136L39.096 72.344L38.84 68.888L35.64 65.688L32.696 64.536L30.264 59.416L22.584 53.528L21.688 50.84L18.744 47.128L15.544 38.296L10.808 37.016L7.736 33.432L3 30.232L4.28 26.776L9.4 21.4L18.744 19.352L20.408 17.688L26.808 16.28L27.832 15L28.216 15.512Z" fill="#030712"/>
</svg>
