<svg width="128" height="128" viewBox="0 0 128 128" fill="none" xmlns="http://www.w3.org/2000/svg">
<path d="M89.608 109.248L89.352 105.92L89.608 105.664L89.992 105.536L92.296 116.8L89.608 109.248ZM91.016 102.08L89.608 105.28L91.016 100.8L92.808 98.112L91.528 100.8L91.016 102.08ZM93.96 95.552L94.344 95.424V96.32L93.064 98.112L93.96 95.552ZM95.624 94.4L94.344 95.808L95.24 94.4L98.44 92.992L95.624 94.4ZM99.464 91.84L100.232 91.328L98.824 91.968L99.464 91.84ZM113.032 81.472L110.216 84.16L112.392 81.856V81.472H113.032ZM63.752 8L63.88 28.224L67.208 30.144H69.128L69.512 29.632L71.56 31.808L76.424 32.576L77.192 33.728L80.648 32.576L82.312 35.136L84.488 34.112L86.536 35.904L88.584 34.624L89.096 36.672L91.016 34.24L92.296 35.136L93.576 34.624L96.392 36.288L99.848 34.24L101 34.624L102.792 33.856L104.712 34.24L105.736 33.088L113.416 37.056L116.488 36.672L117.512 53.184L119.688 55.104V57.28L123.272 62.784L121.352 67.776L122.12 73.024L120.2 75.584L120.968 76.992L119.176 77.504L113.032 81.472L113.416 79.936L115.72 79.04V78.784L112.392 79.424L112.904 76.992L111.752 77.888L110.216 77.504L111.496 80.704L112.392 81.472L109.832 83.136V84.416L107.528 86.72L102.792 89.024V89.152L104.712 88.512L100.232 91.328L102.28 89.152L100.232 90.048L101 89.536L100.488 89.024L98.824 89.536L98.44 88.64L98.056 88.512L98.568 89.536L98.44 90.048L97.8 90.688L98.056 89.536L96.392 89.024L97.8 91.072L97.16 91.84L98.44 91.968L96.392 93.12L95.112 91.84L95.24 94.016L94.088 95.168L93.576 95.424L93.96 93.632L93.576 95.424L93.064 94.272L91.528 95.168L91.912 96.704L93.064 95.552L91.528 98.496L88.328 98.112L91.016 100.16L89.352 104.256L88.328 104.64L88.84 103.104L87.688 104.384L86.28 102.592L87.432 104.384L86.28 104.64H89.352L88.328 107.456L89.096 108.48L88.328 109.248L91.016 116.672L92.168 116.8L91.912 117.696L92.296 117.312L92.808 117.952L91.016 118.848L90.76 120L87.816 117.696L82.824 117.44L76.552 114.624L73.992 114.368L72.712 110.144L70.408 107.456L69.768 101.696L66.696 100.16L64.392 96.32L62.472 94.4L58.76 85.568L53.64 80.704L52.616 80.96L51.72 78.784L45.064 78.4L43.528 77.76L42.76 78.784L40.2 79.04L38.664 84.416L35.976 87.36L33.8 86.848L23.944 80.192L19.72 69.568L15.88 67.136L5.512 56L5 54.208L36.872 55.488L38.28 8H63.752Z" fill="#030712"/>
</svg>
