<svg width="128" height="128" viewBox="0 0 128 128" fill="none" xmlns="http://www.w3.org/2000/svg">
<path d="M93.416 32.584L92.136 32.968L91.88 35.272L89.448 38.472L83.688 42.952L79.848 43.208L77.8 46.024L77.544 53.704L75.368 58.568L76.008 59.592L73.448 63.688L72.296 68.04L69.352 71.112L68.456 75.976L66.792 78.536L66.28 89.8L65.256 91.976L63.848 102.856L62.312 104.392L61.288 108.744L61.672 110.792L64.104 115.4L38.376 114.248L37.224 111.688L38.888 78.536L36.84 75.336H35.432L33.384 77.768L33 75.976L35.176 68.296L33 55.752L34.792 49.608L36.584 47.56L36.328 42.312L37.736 38.344L35.048 30.536L36.584 23.24L35.176 20.168L36.584 16.328L36.328 13.512L94.568 13L93.672 14.792L94.44 18.248L91.24 22.472L90.472 25.288L93.416 31.688V32.584Z" fill="#030712"/>
</svg>
